<svg xmlns="http://www.w3.org/2000/svg" height="1200" width="1600" version="1.1" xmlns:xlink="http://www.w3.org/1999/xlink" xmlns:svgjs="http://svgjs.com/svgjs"><rect fill="#0000" width="1600" height="1200"></rect><g><path d="M823.22 205.07H1108.26C1110.95 205.07 1113.62 205.6 1116.11 206.63 1118.59 207.66 1120.85 209.17 1122.75 211.07 1124.66 212.97 1126.17 215.23 1127.19 217.72 1128.23 220.2 1128.75 222.87 1128.75 225.56V446.26C1128.75 448.95 1128.23 451.61 1127.19 454.1 1126.17 456.58 1124.66 458.84 1122.75 460.75 1120.85 462.65 1118.59 464.16 1116.11 465.19 1113.62 466.22 1110.95 466.75 1108.26 466.75H823.22C820.53 466.75 817.86 466.22 815.38 465.19 812.89 464.16 810.63 462.65 808.73 460.75 806.83 458.84 805.32 456.58 804.29 454.1 803.26 451.61 802.73 448.95 802.73 446.26V225.56C802.73 222.87 803.26 220.2 804.29 217.72 805.32 215.23 806.83 212.97 808.73 211.07 810.63 209.17 812.89 207.66 815.38 206.63 817.86 205.6 820.53 205.07 823.22 205.07Z" fill="#e8e8e8" opacity="1" stroke-width="4" stroke="#00000000"></path><path d="M849.05 285.39H938.04C940.76 285.39 943.37 286.48 945.3 288.4 947.22 290.33 948.3 292.93 948.31 295.66 948.3 298.38 947.22 300.99 945.3 302.91 943.37 304.84 940.76 305.92 938.04 305.92H849.05C846.33 305.92 843.72 304.84 841.79 302.91 839.87 300.99 838.78 298.38 838.78 295.66 838.78 292.93 839.87 290.33 841.79 288.4 843.72 286.48 846.33 285.39 849.05 285.39Z" fill="#c7b287" opacity="1" stroke-width="4" stroke="#00000000"></path><path d="M849.05 327.83H901.07C903.8 327.83 906.41 328.92 908.33 330.84 910.26 332.77 911.34 335.38 911.34 338.1 911.34 340.82 910.26 343.43 908.33 345.35 906.41 347.28 903.8 348.36 901.07 348.37H849.05C846.33 348.36 843.72 347.28 841.79 345.35 839.87 343.43 838.78 340.82 838.78 338.1 838.78 335.38 839.87 332.77 841.79 330.84 843.72 328.92 846.33 327.83 849.05 327.83Z" fill="#cecece" opacity="1" stroke-width="4" stroke="#00000000"></path><path d="M935.3 327.83H951.73C954.45 327.83 957.06 328.92 958.99 330.84 960.91 332.77 961.99 335.38 962 338.1 961.99 340.82 960.91 343.43 958.99 345.35 957.06 347.28 954.45 348.36 951.73 348.37H935.3C932.58 348.36 929.97 347.28 928.05 345.35 926.12 343.43 925.04 340.82 925.03 338.1 925.04 335.38 926.12 332.77 928.05 330.84 929.97 328.92 932.58 327.83 935.3 327.83Z" fill="#2c2c2c" opacity="1" stroke-width="4" stroke="#00000000"></path><path d="M849.05 370.27H861.83C864.55 370.28 867.16 371.36 869.08 373.28 871.01 375.21 872.09 377.82 872.1 380.54 872.09 383.26 871.01 385.87 869.08 387.8 867.16 389.72 864.55 390.8 861.83 390.81H849.05C846.33 390.8 843.72 389.72 841.79 387.8 839.87 385.87 838.78 383.26 838.78 380.54 838.78 377.82 839.87 375.21 841.79 373.28 843.72 371.36 846.33 370.28 849.05 370.27Z" fill="#cecece" opacity="1" stroke-width="4" stroke="#00000000"></path><path d="M896.05 370.27H972.72C975.45 370.28 978.05 371.36 979.98 373.28 981.9 375.21 982.99 377.82 982.99 380.54 982.99 383.26 981.9 385.87 979.98 387.8 978.05 389.72 975.45 390.8 972.72 390.81H896.05C893.33 390.8 890.72 389.72 888.8 387.8 886.87 385.87 885.79 383.26 885.79 380.54 885.79 377.82 886.87 375.21 888.8 373.28 890.72 371.36 893.33 370.28 896.05 370.27Z" fill="#2c2c2c" opacity="1" stroke-width="4" stroke="#00000000"></path><path d="M1006.95 370.27H1072.67C1075.39 370.28 1078 371.36 1079.92 373.28 1081.85 375.21 1082.93 377.82 1082.94 380.54 1082.93 383.26 1081.85 385.87 1079.92 387.8 1078 389.72 1075.39 390.8 1072.67 390.81H1006.95C1004.23 390.8 1001.62 389.72 999.69 387.8 997.77 385.87 996.69 383.26 996.68 380.54 996.69 377.82 997.77 375.21 999.69 373.28 1001.62 371.36 1004.23 370.28 1006.95 370.27Z" fill="#ffffff" opacity="1" stroke-width="4" stroke="#00000000"></path><path d="M849.05 412.71H890.12C892.84 412.72 895.45 413.8 897.38 415.73 899.3 417.65 900.39 420.26 900.39 422.98 900.39 425.7 899.3 428.31 897.38 430.24 895.45 432.16 892.84 433.25 890.12 433.25H849.05C846.33 433.25 843.72 432.16 841.79 430.24 839.87 428.31 838.78 425.7 838.78 422.98 838.78 420.26 839.87 417.65 841.79 415.73 843.72 413.8 846.33 412.72 849.05 412.71Z" fill="#ffbc32" opacity="1" stroke-width="4" stroke="#00000000"></path><path d="M924.35 412.71H933.48C936.2 412.72 938.81 413.8 940.73 415.73 942.66 417.65 943.74 420.26 943.74 422.98 943.74 425.7 942.66 428.31 940.73 430.24 938.81 432.16 936.2 433.25 933.48 433.25H924.35C921.63 433.25 919.02 432.16 917.09 430.24 915.17 428.31 914.08 425.7 914.08 422.98 914.08 420.26 915.17 417.65 917.09 415.73 919.02 413.8 921.63 412.72 924.35 412.71Z" fill="#cecece" opacity="1" stroke-width="4" stroke="#00000000"></path><path d="M967.7 412.71H1022.01C1024.73 412.72 1027.34 413.8 1029.27 415.73 1031.19 417.65 1032.27 420.26 1032.28 422.98 1032.27 425.7 1031.19 428.31 1029.27 430.24 1027.34 432.16 1024.73 433.25 1022.01 433.25H967.7C964.98 433.25 962.37 432.16 960.45 430.24 958.52 428.31 957.44 425.7 957.44 422.98 957.44 420.26 958.52 417.65 960.45 415.73 962.37 413.8 964.98 412.72 967.7 412.71Z" fill="#c7b287" opacity="1" stroke-width="4" stroke="#00000000"></path><path d="M823.22 205.07H1108.26C1110.95 205.07 1113.62 205.6 1116.11 206.63 1118.59 207.66 1120.85 209.17 1122.75 211.07 1124.66 212.97 1126.17 215.23 1127.19 217.72 1128.23 220.2 1128.75 222.87 1128.75 225.56V247.05H802.73V225.56C802.73 222.87 803.26 220.2 804.29 217.72 805.32 215.23 806.83 212.97 808.73 211.07 810.63 209.17 812.89 207.66 815.38 206.63 817.86 205.6 820.53 205.07 823.22 205.07Z" fill="#c7b287" opacity="1" stroke-width="4" stroke="#00000000"></path><path d="M1098.63 235.23C1103.57 235.23 1107.58 231.23 1107.58 226.29 1107.58 221.35 1103.57 217.34 1098.63 217.34 1093.69 217.34 1089.69 221.35 1089.69 226.29 1089.69 231.23 1093.69 235.23 1098.63 235.23Z" stroke="#000000" stroke-width="4" stroke-linecap="round" stroke-linejoin="round" opacity="1" fill="none"></path><path d="M1089.1 235.83L1092.34 232.59" stroke="#000000" stroke-width="4" stroke-linecap="round" stroke-linejoin="round" opacity="1" fill="none"></path></g><g><path d="M374.56 721.85H346.81C345.61 721.85 344.42 722.09 343.31 722.54 342.2 723 341.2 723.68 340.35 724.53 339.5 725.37 338.83 726.38 338.36 727.49 337.9 728.6 337.67 729.79 337.67 730.99V815.72C337.67 816.92 337.9 818.11 338.36 819.22 338.83 820.33 339.5 821.34 340.35 822.19 341.2 823.04 342.2 823.71 343.31 824.17 344.42 824.63 345.61 824.86 346.81 824.86H374.56C375.76 824.86 376.95 824.63 378.06 824.17 379.17 823.71 380.18 823.04 381.03 822.19 381.88 821.34 382.55 820.33 383.01 819.22 383.47 818.11 383.7 816.92 383.7 815.72L383.7 730.99C383.7 729.79 383.47 728.6 383.01 727.49 382.55 726.38 381.88 725.37 381.03 724.53 380.18 723.68 379.17 723 378.06 722.54 376.95 722.09 375.76 721.85 374.56 721.85V721.85Z" stroke="#000000" stroke-width="4" opacity="1" fill="none"></path><path d="M376.63 965.04C384.2 965.04 391.45 962.02 396.81 956.67 402.16 951.32 405.17 944.06 405.18 936.5V807.94C405.17 800.38 402.16 793.12 396.81 787.77 391.46 782.42 384.2 779.41 376.63 779.4H312.26C304.69 779.41 297.44 782.42 292.08 787.77 286.74 793.12 283.73 800.38 283.71 807.94L283.71 936.5C283.73 944.06 286.74 951.32 292.08 956.67 297.44 962.02 304.69 965.04 312.26 965.04H376.63Z" fill="#2c2c2c" opacity="1" stroke-width="4" stroke="#00000000"></path><path d="M412.03 988.38C414.4 988.37 416.7 987.67 418.67 986.35 420.63 985.03 422.16 983.16 423.07 980.98 423.67 979.52 423.98 977.96 423.98 976.39 423.98 974.82 423.67 973.26 423.06 971.81 422.46 970.36 421.58 969.04 420.46 967.93 419.35 966.81 418.03 965.93 416.57 965.33 415.13 964.74 413.59 964.43 412.03 964.42 409.66 964.43 407.36 965.13 405.39 966.45 403.43 967.76 401.9 969.64 400.99 971.82 400.39 973.27 400.08 974.82 400.08 976.39 400.08 977.96 400.39 979.52 401 980.96 401.6 982.42 402.48 983.73 403.6 984.83 404.71 985.94 406.03 986.81 407.48 987.41 408.91 988.06 410.46 988.39 412.03 988.38V988.38Z" fill="#000000" opacity="1" stroke-width="4" stroke="#00000000"></path><path d="M412.03 980.54C412.84 980.54 413.64 980.3 414.31 979.84 414.99 979.39 415.51 978.75 415.82 978 416.13 977.26 416.21 976.43 416.06 975.63 415.89 974.84 415.5 974.1 414.93 973.53 414.36 972.96 413.62 972.57 412.83 972.41 412.04 972.25 411.21 972.33 410.46 972.64 409.71 972.95 409.07 973.48 408.62 974.15 408.17 974.82 407.93 975.62 407.93 976.43 407.93 977.52 408.36 978.57 409.13 979.33 409.9 980.1 410.94 980.54 412.03 980.54Z" fill="#ffbc32" opacity="1" stroke-width="4" stroke="#00000000"></path><path d="M309.34 988.38C311.71 988.38 314.02 987.68 315.98 986.36 317.94 985.05 319.47 983.19 320.38 981 321.28 978.82 321.52 976.42 321.06 974.1 320.6 971.78 319.46 969.66 317.79 967.99 316.12 966.31 313.99 965.18 311.67 964.72 309.35 964.25 306.95 964.49 304.77 965.39 302.59 966.3 300.72 967.83 299.41 969.79 298.09 971.76 297.39 974.07 297.39 976.43 297.4 979.6 298.66 982.64 300.9 984.87 303.14 987.12 306.17 988.37 309.34 988.38V988.38Z" fill="#000000" opacity="1" stroke-width="4" stroke="#00000000"></path><path d="M309.34 980.54C310.15 980.54 310.95 980.3 311.62 979.84 312.3 979.39 312.82 978.75 313.13 978 313.44 977.26 313.52 976.43 313.37 975.63 313.2 974.84 312.82 974.1 312.25 973.53 311.67 972.96 310.94 972.57 310.15 972.41 309.35 972.25 308.52 972.33 307.77 972.64 307.02 972.95 306.38 973.48 305.93 974.15 305.48 974.82 305.24 975.62 305.24 976.43 305.24 977.52 305.67 978.57 306.44 979.33 307.21 980.1 308.25 980.54 309.34 980.54V980.54Z" fill="#ffbc32" opacity="1" stroke-width="4" stroke="#00000000"></path><path d="M409.11 965.04C416.69 965.04 423.96 962.03 429.32 956.69 434.68 951.33 437.7 944.08 437.72 936.5V807.94C437.67 800.37 434.63 793.11 429.26 787.77 423.89 782.42 416.63 779.41 409.05 779.4H340.78C333.22 779.41 325.96 782.42 320.61 787.77 315.26 793.12 312.25 800.38 312.24 807.94L312.24 936.5C312.25 944.06 315.26 951.32 320.61 956.67 325.96 962.02 333.22 965.04 340.78 965.04H409.11Z" fill="#ffbc32" opacity="1" stroke-width="4" stroke="#00000000"></path><path d="M386.62 733.02C388.8 733.02 390.9 732.15 392.44 730.6 393.99 729.05 394.86 726.95 394.86 724.77 394.86 722.58 393.99 720.49 392.44 718.94 390.9 717.39 388.8 716.52 386.62 716.52H334.69C332.5 716.52 330.41 717.39 328.86 718.94 327.32 720.49 326.45 722.58 326.45 724.77 326.45 726.95 327.32 729.05 328.86 730.6 330.41 732.15 332.5 733.02 334.69 733.02H386.62Z" fill="#000000" opacity="1" stroke-width="4" stroke="#00000000"></path><path d="M365.35 870.26C365.68 870.26 365.99 870.22 366.31 870.16L366.46 870.13C367.36 870.01 368.22 869.72 369 869.26 369.79 868.8 370.47 868.19 371.01 867.47 371.55 866.76 371.94 865.96 372.17 865.1 372.39 864.24 372.44 863.34 372.31 862.46L369.46 841.46C369.31 840.41 368.93 839.41 368.35 838.53 367.73 837.63 366.9 836.88 365.92 836.37 364.94 835.86 363.86 835.6 362.76 835.61 361.36 835.6 360 836.03 358.86 836.84L342.97 847.93C342.09 848.55 341.35 849.38 340.83 850.33 340.41 851.12 340.15 851.99 340.06 852.88 339.97 853.77 340.06 854.67 340.32 855.53 340.58 856.38 341 857.18 341.57 857.87 342.14 858.57 342.84 859.14 343.63 859.56L362.36 869.55C363.29 870 364.32 870.25 365.35 870.26V870.26Z" fill="#2c2c2c" opacity="1" stroke-width="4" stroke="#00000000"></path><path d="M392.65 906.37C393.52 906.25 394.32 905.84 394.93 905.2L398.36 901.76C398.69 901.42 399.08 901.15 399.51 900.96 399.95 900.78 400.41 900.67 400.88 900.67 401.12 900.65 401.35 900.67 401.59 900.73L406.39 901.64C406.62 901.69 406.86 901.71 407.1 901.7 408.03 901.7 408.93 901.37 409.64 900.78 410.36 900.18 410.84 899.36 411.01 898.45 411.19 897.61 411.07 896.73 410.68 895.97L408.48 891.63C408.22 891.09 408.09 890.51 408.1 889.91 408.11 889.32 408.26 888.73 408.55 888.21L410.88 883.93C411.13 883.47 411.29 882.97 411.36 882.45 411.41 881.93 411.37 881.41 411.22 880.9 411.08 880.4 410.83 879.93 410.51 879.52 410.18 879.12 409.77 878.78 409.31 878.53 408.72 878.19 408.05 878.01 407.36 878 407.19 877.99 407.01 878.01 406.84 878.07L401.98 878.85H401.59C400.52 878.83 399.5 878.39 398.75 877.62L395.38 874.06C395.02 873.66 394.57 873.35 394.08 873.14 393.59 872.92 393.05 872.82 392.52 872.82 392.01 872.81 391.5 872.91 391.04 873.1 390.56 873.29 390.14 873.57 389.78 873.93 389.15 874.52 388.72 875.29 388.54 876.14L387.76 881C387.65 881.59 387.41 882.15 387.06 882.63 386.69 883.11 386.23 883.5 385.7 883.78L381.29 885.85C380.36 886.32 379.64 887.12 379.28 888.11 378.93 889.09 378.98 890.17 379.4 891.13 379.8 891.9 380.41 892.53 381.16 892.95L385.51 895.22C386.03 895.51 386.48 895.92 386.83 896.41 387.17 896.9 387.41 897.47 387.5 898.06L388.15 902.92C388.28 903.88 388.75 904.77 389.48 905.4 390.21 906.04 391.15 906.39 392.13 906.37H392.65Z" fill="#ffffff" opacity="1" stroke-width="4" stroke="#00000000"></path><path d="M357.7 930.1C360.81 930.1 363.85 929.18 366.43 927.45 369.02 925.72 371.03 923.27 372.22 920.4 373.4 917.54 373.72 914.37 373.11 911.33 372.5 908.28 371.01 905.48 368.81 903.29 366.62 901.09 363.82 899.59 360.77 898.99 357.72 898.38 354.57 898.69 351.69 899.88 348.82 901.07 346.37 903.08 344.65 905.67 342.92 908.25 342 911.28 342 914.39 342 918.55 343.65 922.55 346.6 925.49 349.55 928.44 353.54 930.09 357.7 930.1V930.1Z" fill="#c7b287" opacity="1" stroke-width="4" stroke="#00000000"></path></g><g><path d="M888.96 684.84H758.18V751.81H888.96V684.84Z" fill="#cecece" opacity="1" stroke-width="4" stroke="#00000000"></path><path d="M888.96 751.02H758.18V817.99H888.96V751.02Z" fill="#cecece" opacity="1" stroke-width="4" stroke="#00000000"></path><path d="M758.18 684.84H888.96V725.1L758.18 690.28V684.84Z" fill="#c7b28700" opacity="0" stroke="#00000000" stroke-width="4"></path><path d="M758.18 751.02H888.96V791.28L758.18 756.46V751.02Z" fill="#c7b28700" opacity="0" stroke="#00000000" stroke-width="4"></path><path d="M807.97 751.02H839.25C839.25 759.61 832.23 766.62 823.65 766.62 814.98 766.7 807.97 759.69 807.97 751.02Z" fill="#1f1f1f" opacity="1" stroke-width="4" stroke="#00000000"></path><path d="M807.97 684.84H839.25C839.25 693.43 832.23 700.44 823.65 700.44 814.98 700.44 807.97 693.51 807.97 684.84Z" fill="#1f1f1f" opacity="1" stroke-width="4" stroke="#00000000"></path><path d="M518.04 565.09H923.55C959.71 565.09 989.02 594.4 989.02 630.64V671.53H452.49V630.64C452.49 594.4 481.8 565.09 518.04 565.09Z" fill="#c7b287" opacity="1" stroke-width="4" stroke="#00000000"></path><path d="M989.02 682.09H888.49V986.2H989.02V682.09Z" fill="#c7b287" opacity="1" stroke-width="4" stroke="#00000000"></path><path d="M888.49 682.09H985C986.97 682.09 988.39 684.05 987.76 685.95L888.72 985.49C888.65 985.65 888.49 985.57 888.49 985.49V682.09Z" fill="#c7b28700" opacity="0" stroke="#00000000" stroke-width="4"></path><path d="M553.02 682.09H452.49V986.2H553.02V682.09Z" fill="#c7b287" opacity="1" stroke-width="4" stroke="#00000000"></path><path d="M989.02 667.51H452.49V684.84H989.02V667.51Z" fill="#cecece" opacity="1" stroke-width="4" stroke="#00000000"></path><path d="M758.18 751.02L888.17 750.87" stroke="#00000000" stroke-width="4" stroke-linecap="round" stroke-linejoin="round" opacity="1" fill="none"></path><path d="M452.49 684.84L989.02 684.69" stroke="#00000000" stroke-width="4" stroke-linecap="round" stroke-linejoin="round" opacity="1" fill="none"></path></g><g><path d="M1389.17 849.19C1358.52 796.84 1327.87 777.04 1311.91 737.55 1292.94 690.3 1307.26 594.7 1251.53 549.28H1251.43L1196.43 564.24C1196.43 564.24 1196.34 564.24 1196.34 564.33 1196.07 566.7 1186.4 646.06 1223.25 734.35 1230.55 751.78 1239.58 769.56 1250.98 787.17 1281.08 833.96 1313.28 881.3 1328.6 908.12 1333.26 916.33 1336.36 922.62 1337.36 926.36 1337.36 926.36 1337.36 926.36 1337.36 926.45L1364.18 943.6H1364.27L1413.34 893.43V893.34C1412.25 890.88 1409.69 885.95 1406.59 880.03 1401.3 869.81 1394.1 856.77 1389.17 849.19Z" fill="#f49e73" opacity="1" stroke-width="4" stroke="#00000000"></path><path d="M1312 737.55C1293.03 690.3 1307.35 594.7 1251.62 549.28H1251.53L1196.52 564.24C1196.52 564.24 1196.43 564.24 1196.43 564.33 1196.16 566.7 1186.49 646.06 1223.25 734.26 1223.25 734.26 1223.25 734.35 1223.34 734.35L1320.85 755.97C1320.94 755.97 1321.03 755.88 1320.94 755.88 1317.66 750.13 1314.65 744.11 1312 737.55Z" fill="#f49e7300" opacity="0" stroke="#00000000" stroke-width="4"></path><path d="M1239.67 356.99C1240.58 338.29 1236.66 326.8 1227.26 312.75 1217.87 298.71 1202.73 290.13 1181.65 301.26 1166.69 309.11 1161.5 328.81 1160.13 345.87 1160.13 345.87 1160.13 345.96 1160.04 345.96 1159.4 346.14 1152.83 348.51 1152.65 351.52 1152.37 354.62 1157.3 358.64 1157.76 359.09V359.18C1153.29 370.77 1153.47 386.55 1165.97 392.02 1172.08 394.76 1181.93 395.12 1188.68 393.12 1188.77 393.12 1188.77 393.12 1188.77 393.21L1188.59 397.49C1188.59 397.58 1188.59 397.58 1188.68 397.58L1216.13 400.96H1226.35C1226.35 400.96 1226.44 400.96 1226.44 400.87 1226.99 399.77 1239.94 398.86 1240.03 397.58 1240.21 394.67 1240.4 391.2 1240.67 387.46 1241.31 377.15 1239.3 364.84 1239.67 356.99Z" fill="#f49e73" opacity="1" stroke-width="4" stroke="#00000000"></path><path d="M1242.59 356.45C1243.5 337.75 1245.23 321.24 1235.84 307.28 1226.44 293.23 1199.99 284.93 1179.01 296.06H1178.92C1175 292.5 1170.16 290.22 1164.87 289.49 1157.03 288.58 1147.08 293.69 1148.09 304.45 1149.46 321.33 1177.82 343.86 1194.24 348.42H1194.33C1195.25 347.69 1213.94 332.91 1224.89 343.86 1234.56 355.99 1215.04 373.05 1213.94 373.96V374.05C1216.77 380.44 1232.64 387.55 1240.76 387.37 1240.85 387.37 1240.85 387.37 1240.85 387.28 1241.22 382.08 1242.4 361.1 1242.59 356.45Z" fill="#a66241" opacity="1" stroke-width="4" stroke="#00000000"></path><path d="M1237.39 237.69C1256.45 213.34 1282.81 202.21 1296.31 212.79 1309.81 223.37 1305.43 251.65 1286.37 276 1267.31 300.36 1241.49 310.12 1227.99 299.54 1214.49 288.96 1218.41 261.96 1237.39 237.69Z" fill="#a66241" opacity="1" stroke-width="4" stroke="#00000000"></path><path d="M1373.94 400.87C1374.21 400.23 1377.04 395.67 1373.94 391.47 1371.02 387.64 1360.8 396.03 1357.7 398.68 1357.61 398.77 1357.52 398.68 1357.61 398.59 1361.17 394.21 1376.04 375.33 1370.2 372.96 1363.9 370.22 1339.09 399.87 1336.81 402.6 1336.72 402.69 1336.63 402.6 1336.63 402.51 1336.63 400.59 1336.72 388.83 1334.17 387.09 1331.34 385.18 1323.5 398.13 1315.1 414.92 1310.54 424.04 1304.43 439.18 1299.96 450.58V450.67L1316.65 479.5C1316.65 479.5 1316.75 479.59 1316.75 479.5L1343.56 470.83C1343.56 470.83 1343.65 470.83 1343.65 470.74 1345.2 459.61 1346.39 450.95 1347.67 449.4 1352.32 443.74 1351.41 445.66 1364.45 433.52 1376.86 422.03 1373.3 415.55 1372.84 414.92V414.82C1379.14 408.62 1374.39 401.51 1373.94 400.87Z" fill="#f49e73" opacity="1" stroke-width="4" stroke="#00000000"></path><path d="M1203.09 762.08C1210.57 711.64 1273.96 637.76 1248.88 570.53L1248.79 570.44 1175.73 570.89H1175.63C1174.63 572.72 1140.52 634.2 1125.65 727.51 1124.74 742.47 1124.55 758.07 1125.56 774.12 1129.57 838.8 1134.04 881.12 1136.59 917.88 1136.78 920.89 1136.96 923.9 1137.14 926.82L1154.2 969.15C1154.2 969.24 1154.29 969.24 1154.29 969.15L1217.96 931.38V931.29C1218.87 807.51 1196.89 804.13 1203.09 762.08Z" fill="#f49e73" opacity="1" stroke-width="4" stroke="#00000000"></path><path d="M1129.57 725.15L1206.28 747.59C1206.37 747.59 1206.37 747.59 1206.37 747.5 1208.2 741.11 1210.66 734.45 1213.4 727.43 1215.13 723.05 1217.05 718.4 1219.05 713.84 1219.05 713.75 1219.05 713.75 1218.96 713.75L1129.57 724.97C1129.48 725.06 1129.48 725.15 1129.57 725.15Z" fill="#f49e7300" opacity="0" stroke="#00000000" stroke-width="4"></path><path d="M1010.81 542.71C989.37 553.02 958.54 574.45 954.8 581.93 951.43 588.77 957.26 590.14 958.36 590.32 958.45 590.32 958.45 590.42 958.36 590.51 951.43 597.62 962.28 600.45 963.1 600.63 963.1 600.63 963.19 600.63 963.19 600.72 965.84 614.4 991.29 597.26 995.3 594.52 995.39 594.43 995.48 594.61 995.39 594.61 992.75 597.89 978.7 615.59 985.54 616.41 992.93 617.32 1009.35 596.44 1009.8 595.89 1009.99 595.8 1012.36 594.79 1022.94 592.15 1029.96 590.23 1036.26 586.77 1041.64 581.84 1041.64 581.84 1041.64 581.84 1041.73 581.84 1042.46 581.84 1053.31 581.93 1066.72 581.38 1066.81 581.38 1066.81 581.38 1066.81 581.29L1067.36 548.55C1067.36 548.55 1067.36 548.55 1067.36 548.46L1054.13 527.93C1054.13 527.93 1054.04 527.84 1054.04 527.93 1037.53 532.86 1019.93 538.33 1010.81 542.71Z" fill="#f49e73" opacity="1" stroke-width="4" stroke="#00000000"></path><path d="M1251.53 549.28L1206.92 561.41H1172.35 1172.26C1171.16 563.32 1131.76 632.19 1125.74 727.51 1125.74 727.6 1125.74 727.6 1125.83 727.6L1308.54 727.51C1308.63 727.51 1308.63 727.42 1308.63 727.42 1294.76 677.71 1303.61 591.51 1251.53 549.28 1251.62 549.28 1251.62 549.28 1251.53 549.28Z" fill="#2c2c2c" opacity="1" stroke-width="4" stroke="#00000000"></path><path d="M1132.4 535.51C1099.01 549.1 1075.66 538.52 1070.28 523.2L1070.19 523.11C1064.99 524.66 1059.88 526.12 1054.04 527.76 1053.95 527.76 1053.95 527.85 1053.95 527.85L1066.72 581.21 1066.81 581.3C1082.87 580.48 1102.75 578.57 1116.89 573.91L1116.98 573.82C1114.43 560.41 1130.57 538.25 1132.49 535.69 1132.58 535.6 1132.49 535.51 1132.4 535.51Z" fill="#ffffff" opacity="1" stroke-width="4" stroke="#00000000"></path><path d="M1296.86 528.66C1313.83 516.71 1327.14 488.8 1327.42 462.8 1327.42 462.8 1327.42 462.71 1327.33 462.71L1300.05 450.58C1299.96 450.58 1299.96 450.58 1299.96 450.67 1299.23 452.68 1298.5 454.5 1297.77 456.24 1295.58 461.89 1294.12 465.91 1293.76 466.91 1293.76 467 1293.58 467 1293.58 466.91 1292.94 465.18 1288.83 453.96 1283.27 442.19L1283.18 442.1C1265.76 448.39 1253.99 456.97 1252.16 458.33 1252.07 458.43 1251.98 458.33 1252.07 458.24 1257.27 446.02 1259.01 432.61 1260.56 412.82 1260.56 412.82 1260.56 412.73 1260.46 412.73 1253.9 408.99 1246.96 406.16 1239.67 404.61L1239.58 404.52 1240.12 397.68C1240.12 397.58 1240.12 397.58 1240.03 397.58H1188.77C1188.68 397.58 1188.68 397.58 1188.68 397.68L1188.4 403.51C1188.4 403.6 1188.4 403.6 1188.31 403.6 1170.25 403.97 1153.29 409.81 1139.7 427.87 1135.32 433.71 1129.84 443.65 1124.19 455.05V455.14C1144.07 468.82 1180.1 467.18 1221.79 436.08 1221.88 435.99 1221.97 436.08 1221.88 436.17 1218.41 441.92 1179.47 509.51 1246.05 514.07 1246.14 514.07 1246.14 514.16 1246.05 514.25 1242.59 516.26 1205.83 538.06 1200.9 561.23 1200.9 561.32 1200.9 561.32 1200.99 561.32H1263.75C1263.84 561.32 1263.84 561.32 1263.84 561.23L1267.4 531.76C1267.4 531.67 1267.49 531.67 1267.58 531.76 1269.22 534.5 1285.64 560.68 1313.1 549.09 1322.31 545.17 1328.79 534.23 1333.35 520.82 1333.35 520.73 1333.35 520.73 1333.26 520.73 1318.02 519.91 1300.96 526.93 1296.86 528.75 1296.86 528.84 1296.77 528.75 1296.86 528.66Z" fill="#ffffff" opacity="1" stroke-width="4" stroke="#00000000"></path><path d="M1297.59 456.61C1295.86 461.08 1293.85 466.64 1293.67 467.1 1293.67 467.1 1293.67 467.1 1293.67 467.19L1299.51 480.78C1299.51 480.87 1299.69 480.87 1299.69 480.78L1297.77 456.7C1297.77 456.52 1297.68 456.52 1297.59 456.61Z" fill="#ffffff00" opacity="0" stroke="#00000000" stroke-width="4"></path><path d="M1267.58 531.59C1267.85 532.14 1272.96 540.71 1281.81 546.55 1281.9 546.64 1281.99 546.55 1281.99 546.46 1280.81 544.27 1273.96 530.68 1271.05 503.77 1271.05 503.68 1270.86 503.68 1270.86 503.77L1267.58 531.59Z" fill="#ffffff00" opacity="0" stroke="#00000000" stroke-width="4"></path><path d="M1248.06 513.7C1181.38 509.05 1220.51 439.64 1223.98 433.8 1224.07 433.71 1223.89 433.61 1223.89 433.71 1182.2 464.9 1144.26 468.82 1124.37 455.23H1124.28C1111.42 481.41 1098.28 514.34 1097.83 515.71 1097.83 515.71 1097.83 515.71 1097.74 515.8 1096.91 515.98 1085.42 518.9 1070.46 523.19 1070.37 523.19 1070.37 523.28 1070.37 523.28 1075.66 538.6 1094.91 552.83 1128.2 539.24 1128.29 539.24 1128.38 539.33 1128.29 539.33 1126.74 541.71 1114.52 560.59 1117.07 573.81 1117.07 573.91 1117.16 573.91 1117.16 573.91 1119.72 573.08 1122.36 571.99 1124.64 570.71 1146.81 559.13 1161.4 526.47 1162.77 523.37 1162.77 523.28 1162.96 523.28 1162.96 523.37L1167.7 542.53 1172.35 561.32 1172.44 561.41H1204.18C1204.18 561.41 1204.28 561.41 1204.28 561.32 1209.29 538.15 1244.87 515.8 1248.15 513.79 1248.15 513.79 1248.15 513.7 1248.06 513.7Z" fill="#ffffff" opacity="1" stroke-width="4" stroke="#00000000"></path><path d="M1162.77 523.11L1167.42 542.08C1167.42 542.17 1167.61 542.17 1167.61 542.08L1174.08 499.66C1174.08 499.57 1173.99 499.48 1173.9 499.57L1162.77 523.11Z" fill="#ffffff00" opacity="0" stroke="#00000000" stroke-width="4"></path><path d="M1283.18 442.11C1283.27 442.11 1283.27 442.02 1283.27 442.02 1280.53 436.27 1277.43 430.61 1274.06 425.14 1270.59 419.85 1265.76 415.84 1260.65 412.83 1260.56 412.83 1260.56 412.83 1260.56 412.92 1258.91 432.71 1251.07 454.88 1245.87 467.28 1245.87 467.37 1245.96 467.47 1246.05 467.37 1248.42 464.82 1265.57 448.4 1283.18 442.11Z" fill="#ffffff" opacity="1" stroke-width="4" stroke="#00000000"></path><path d="M1327.42 462.9C1327.05 488.98 1310.36 518.72 1293.39 530.76 1293.3 530.85 1293.39 530.94 1293.49 530.94 1298.05 528.84 1318.02 520.18 1333.35 521.09 1333.35 521.09 1333.44 521.09 1333.44 521 1338.91 504.76 1341.74 485.52 1343.75 470.92 1343.75 470.92 1343.75 470.83 1343.65 470.83L1327.6 462.9C1327.51 462.71 1327.42 462.8 1327.42 462.9Z" fill="#ffffff" opacity="1" stroke-width="4" stroke="#00000000"></path><path d="M958.36 590.32L985.72 568.89" stroke="#000000" stroke-width="4" stroke-linecap="round" stroke-linejoin="round" opacity="1" fill="none"></path><path d="M963.19 600.73L993.2 581.03" stroke="#000000" stroke-width="4" stroke-linecap="round" stroke-linejoin="round" opacity="1" fill="none"></path><path d="M1331.52 410.81L1336.63 402.42" stroke="#000000" stroke-width="4" stroke-linecap="round" stroke-linejoin="round" opacity="1" fill="none"></path><path d="M1373.94 400.88C1365.55 408.36 1358.43 413.37 1358.43 413.37" stroke="#000000" stroke-width="4" stroke-linecap="round" stroke-linejoin="round" opacity="1" fill="none"></path><path d="M1372.84 414.92C1368.19 419.57 1362.26 424.4 1362.26 424.4" stroke="#000000" stroke-width="4" stroke-linecap="round" stroke-linejoin="round" opacity="1" fill="none"></path><path d="M1231.55 633.47C1224.43 639.31 1213.67 639.31 1205.46 633.47 1199.81 629.46 1196.25 623.25 1195.52 616.5L1193.79 596.07C1193.79 595.98 1193.79 595.98 1193.88 595.98H1236.75C1236.84 595.98 1236.84 595.98 1236.84 596.07L1238.57 616.5C1239.03 622.89 1236.48 629.36 1231.55 633.47Z" fill="#5d5d5d" opacity="1" stroke-width="4" stroke="#00000000"></path><path d="M1276.88 633.48C1281.99 637.31 1288.47 638.77 1294.67 637.4 1294.76 637.4 1294.76 637.31 1294.76 637.31 1292.21 623.26 1288.92 609.03 1283.91 595.99L1283.82 595.9H1265.3C1265.21 595.9 1265.21 595.99 1265.21 595.99L1266.94 616.42C1267.67 623.35 1271.23 629.56 1276.88 633.48Z" fill="#5d5d5d" opacity="1" stroke-width="4" stroke="#00000000"></path><path d="M1189.13 393.12C1192.78 391.85 1196.16 390.11 1198.44 388.2" stroke="#00000000" stroke-width="4" stroke-linecap="round" stroke-linejoin="round" opacity="1" fill="none"></path><path d="M1205.74 359.91L1212.21 353.34" stroke="#00000000" stroke-width="4" stroke-linecap="round" stroke-linejoin="round" opacity="1" fill="#ffffff00"></path><path d="M1172.17 351.16C1173.73 351.16 1175 349.9 1175 348.34 1175 346.77 1173.73 345.51 1172.17 345.51 1170.61 345.51 1169.34 346.77 1169.34 348.34 1169.34 349.9 1170.61 351.16 1172.17 351.16Z" fill="#17151c00" opacity="1" stroke-width="4" stroke="#ffffff00"></path><path d="M1166.79 366.85C1169.34 366.95 1171.62 365.94 1173.35 364.03" stroke="#00000000" stroke-width="4" stroke-linecap="round" stroke-linejoin="round" opacity="1" fill="#ffffff00"></path><path d="M1293.67 467.1L1299.6 480.69" stroke="#00000000" stroke-width="4" stroke-linecap="round" stroke-linejoin="round" opacity="1" fill="none"></path><path d="M1162.86 523.11L1173.99 499.66" stroke="#000000" stroke-width="4" stroke-linecap="round" stroke-linejoin="round" opacity="1" fill="none"></path><path d="M1267.58 531.58L1270.86 503.85" stroke="#000000" stroke-width="4" stroke-linecap="round" stroke-linejoin="round" opacity="1" fill="none"></path><path d="M1236.02 307.56C1232.55 302.27 1226.72 297.8 1219.78 294.88" stroke="#00000000" stroke-width="4" stroke-linecap="round" stroke-linejoin="round" opacity="1" fill="none"></path><path d="M1102.94 972.62C1111.6 958.3 1136.14 954.56 1136.32 925.54 1136.32 923.99 1136.59 919.07 1136.68 918.06 1136.68 917.97 1136.68 917.97 1136.78 917.97L1155.11 918.15C1161.95 918.15 1167.06 924.27 1165.97 930.92L1162.96 949.44C1162.96 949.53 1163.05 949.62 1163.14 949.53 1165.33 947.53 1185.03 932.93 1217.78 931.47 1217.96 931.47 1218.05 931.56 1218.05 931.75 1217.96 955.47 1218.05 963.13 1217.05 973.07 1217.05 973.07 1217.05 973.17 1216.95 973.17 1216.68 973.17 1215.31 973.44 1215.31 973.44L1103.03 972.89 1102.94 972.62Z" fill="#ffbc32" opacity="1" stroke-width="4" stroke="#00000000"></path><path d="M1103.03 972.62L1217.23 971.71C1217.32 971.71 1217.32 971.8 1217.32 971.8 1216.86 980.19 1216.68 981.38 1216.04 988.67 1216.04 988.76 1216.04 988.76 1215.95 988.76H1099.01C1098.92 988.76 1098.92 988.76 1098.92 988.67 1098.92 984.29 1099.56 980.74 1100.65 977.54 1101.2 975.72 1102.02 974.17 1103.03 972.62 1102.94 972.62 1102.94 972.62 1103.03 972.62Z" fill="#ffffff" opacity="1" stroke-width="4" stroke="#00000000"></path><path d="M1133.67 940.97L1146.54 946.35" stroke="#00000000" stroke-width="4" stroke-linecap="round" stroke-linejoin="round" opacity="1" fill="none"></path><path d="M1127.65 950.91L1138.6 959.12" stroke="#00000000" stroke-width="4" stroke-linecap="round" stroke-linejoin="round" opacity="1" fill="none"></path><path d="M1162.96 949.71L1158.49 971.71" stroke="#00000000" stroke-width="4" stroke-linecap="round" stroke-linejoin="round" opacity="1" fill="none"></path><path d="M1324.13 971.25C1325.59 954.56 1344.75 940.96 1332.07 914.87 1331.34 913.41 1330.88 911.86 1329.97 910.31 1329.61 909.67 1329.15 908.76 1328.79 908.12V908.03L1345.75 899.82C1351.86 896.81 1359.16 900 1361.17 906.48L1366.73 924.63C1367.1 923.54 1376.86 896.54 1406.68 880.12 1406.78 880.12 1406.78 880.12 1406.78 880.12 1410.24 885.59 1423.56 910.04 1427.94 920.53L1427.66 920.16 1324.41 971.25H1324.13Z" fill="#ffbc32" opacity="1" stroke-width="4" stroke="#00000000"></path><path d="M1324.22 971.25L1427.57 919.53C1427.66 919.53 1427.66 919.53 1427.66 919.53 1430.86 926.46 1432.32 930.02 1434.6 934.95V935.04L1327.78 987.49C1327.69 987.49 1327.69 987.49 1327.69 987.49 1325.78 983.56 1324.77 980.1 1324.32 976.72 1324.04 974.81 1324.04 972.98 1324.22 971.25 1324.13 971.25 1324.13 971.25 1324.22 971.25Z" fill="#ffffff" opacity="1" stroke-width="4" stroke="#00000000"></path><path d="M1335.54 941.42L1347.48 943.7" stroke="#00000000" stroke-width="4" stroke-linecap="round" stroke-linejoin="round" opacity="1" fill="none"></path><path d="M1366.73 924.81L1372.39 946.52" stroke="#00000000" stroke-width="4" stroke-linecap="round" stroke-linejoin="round" opacity="1" fill="none"></path><path d="M1336.36 931.3L1348.03 929.75" stroke="#00000000" stroke-width="4" stroke-linecap="round" stroke-linejoin="round" opacity="1" fill="none"></path><path d="M1264.02 561.42H1172.26" stroke="#00000000" stroke-width="4" stroke-linecap="round" stroke-linejoin="round" opacity="1" fill="none"></path></g><g><path d="M696.57 608.08H728.5C735.04 608.08 740.33 613.36 740.33 619.9V655.94C740.33 662.48 735.04 667.76 728.5 667.76H668.26C665.96 667.76 664.16 665.88 664.16 663.66 664.16 661.36 665.96 659.48 668.26 659.48 668.26 659.48 668.26 659.48 668.33 659.48H684.88V619.9C684.82 613.36 690.1 608.08 696.57 608.08Z" fill="#2c2c2c" opacity="1" stroke-width="4" stroke="#00000000"></path><path d="M696.57 607.45H728.5C735.04 607.45 740.33 612.74 740.33 619.28V650.3L684.88 636.81V619.28C684.82 612.74 690.1 607.45 696.57 607.45Z" fill="#2c2c2c00" opacity="0" stroke="#00000000" stroke-width="4"></path><path d="M809.82 488.71H654.7C644.54 488.71 634.8 496.92 633.06 507.14L614 615.1C612.19 625.26 619.01 633.54 629.17 633.54H784.29C794.44 633.54 804.18 625.33 805.92 615.1L824.98 507.14C826.79 496.92 819.97 488.71 809.82 488.71Z" fill="#2c2c2c" opacity="1" stroke-width="4" stroke="#00000000"></path><path d="M799.1 505.13H659.63C654.21 505.13 649.13 509.51 648.16 514.87L633.06 600.5H792.08L807.17 514.87C808.08 509.51 804.53 505.13 799.1 505.13Z" fill="#e8e8e8" opacity="1" stroke-width="4" stroke="#00000000"></path><path d="M740.83 633.59H684.39" stroke="#00000000" stroke-width="4" stroke-linecap="round" stroke-linejoin="round" opacity="1" fill="none"></path><path d="M731.77 498.84C732.74 497.96 732.9 496.58 732.15 495.76 731.4 494.94 730.01 494.99 729.04 495.87 728.08 496.75 727.91 498.13 728.66 498.95 729.42 499.77 730.81 499.72 731.77 498.84Z" fill="#000000" opacity="1" stroke-width="4" stroke="#00000000"></path></g><g><path d="M693.95 521.01H757.15C768.09 521.01 775.25 529.86 773.14 540.81L768.15 566.78C766.04 577.73 755.48 586.59 744.54 586.59H681.34C670.4 586.59 663.24 577.73 665.35 566.78L670.34 540.81C672.45 529.86 683.01 521.01 693.95 521.01Z" fill="#ffbc32" opacity="1" stroke-width="4" stroke="#00000000"></path><path d="M701.52 567.98L687.91 553.98 706.89 540.06" stroke="#a0a0a0" stroke-width="4" stroke-linecap="round" stroke-linejoin="round" opacity="1" fill="none"></path><path d="M736.81 540.06L750.44 553.98 731.44 567.98" stroke="#a0a0a0" stroke-width="4" stroke-linecap="round" stroke-linejoin="round" opacity="1" fill="none"></path><path d="M726.71 539.17L711.72 568.35" stroke="#a0a0a0" stroke-width="4" stroke-linecap="round" stroke-linejoin="round" opacity="1" fill="none"></path></g><g><path d="M369.51 458.34H414.22C419.99 458.34 424.69 463.04 424.69 468.81V581.31C424.69 587.08 419.99 591.78 414.22 591.78H369.51C363.74 591.78 359.04 587.08 359.04 581.31V468.81C359.04 463.04 363.74 458.34 369.51 458.34Z" fill="#c7b287" opacity="1" stroke-width="4" stroke="#00000000"></path><path d="M404.78 484.54H379.13C375.84 484.54 373.15 481.85 373.15 478.56 373.15 475.27 375.84 472.57 379.13 472.57H404.78C408.07 472.57 410.76 475.27 410.76 478.56 410.76 481.89 408.07 484.54 404.78 484.54Z" fill="#e8e8e8" opacity="1" stroke-width="4" stroke="#00000000"></path><path d="M380.46 485.91C376.4 485.91 373.15 482.62 373.15 478.6 373.15 474.54 376.44 471.29 380.46 471.29 384.52 471.29 387.77 474.58 387.77 478.6 387.81 482.62 384.52 485.91 380.46 485.91Z" fill="#ffffff" opacity="1" stroke-width="4" stroke="#00000000"></path><path d="M379.13 518.95H404.78C408.07 518.95 410.76 521.64 410.76 524.93 410.76 528.22 408.07 530.92 404.78 530.92H379.13C375.84 530.92 373.15 528.22 373.15 524.93 373.15 521.64 375.84 518.95 379.13 518.95Z" fill="#e8e8e8" opacity="1" stroke-width="4" stroke="#00000000"></path><path d="M403.45 517.62C407.51 517.62 410.76 520.92 410.76 524.93 410.76 528.99 407.47 532.24 403.45 532.24 399.39 532.24 396.14 528.95 396.14 524.93 396.1 520.92 399.39 517.62 403.45 517.62Z" fill="#ffbc32" opacity="1" stroke-width="4" stroke="#00000000"></path><path d="M379.13 565.32H404.78C408.07 565.32 410.76 568.02 410.76 571.31 410.76 574.6 408.07 577.29 404.78 577.29H379.13C375.84 577.29 373.15 574.6 373.15 571.31 373.15 568.02 375.84 565.32 379.13 565.32Z" fill="#e8e8e8" opacity="1" stroke-width="4" stroke="#00000000"></path><path d="M403.45 564C407.51 564 410.76 567.29 410.76 571.31 410.76 575.37 407.47 578.62 403.45 578.62 399.39 578.62 396.14 575.33 396.14 571.31 396.1 567.29 399.39 564 403.45 564Z" fill="#ffbc32" opacity="1" stroke-width="4" stroke="#00000000"></path><path d="M379.13 495.78H404.78C408.07 495.78 410.76 498.48 410.76 501.77 410.76 505.06 408.07 507.75 404.78 507.75H379.13C375.84 507.75 373.15 505.06 373.15 501.77 373.15 498.48 375.84 495.78 379.13 495.78Z" fill="#e8e8e8" opacity="1" stroke-width="4" stroke="#00000000"></path><path d="M380.46 494.42C384.52 494.42 387.77 497.71 387.77 501.72 387.77 505.78 384.47 509.03 380.46 509.03 376.4 509.03 373.15 505.74 373.15 501.72 373.15 497.71 376.44 494.42 380.46 494.42Z" fill="#ffffff" opacity="1" stroke-width="4" stroke="#00000000"></path><path d="M379.13 542.16H404.78C408.07 542.16 410.76 544.85 410.76 548.14 410.76 551.43 408.07 554.13 404.78 554.13H379.13C375.84 554.13 373.15 551.43 373.15 548.14 373.15 544.85 375.84 542.16 379.13 542.16Z" fill="#e8e8e8" opacity="1" stroke-width="4" stroke="#00000000"></path><path d="M380.46 540.83C384.52 540.83 387.77 544.12 387.77 548.14 387.77 552.2 384.47 555.45 380.46 555.45 376.4 555.45 373.15 552.16 373.15 548.14 373.15 544.08 376.44 540.83 380.46 540.83Z" fill="#ffffff" opacity="1" stroke-width="4" stroke="#00000000"></path></g><g><path d="M533.55 816.32C538.79 816.32 543.11 820.55 543.11 825.79L543.03 850.6V953.23C543.03 958.47 538.79 962.71 533.55 962.71 528.32 962.71 524.08 958.47 524.08 953.23V825.79C524 820.55 528.24 816.32 533.55 816.32Z" fill="#cecece" opacity="1" stroke-width="4" stroke="#00000000"></path><path d="M533.55 816.32C528.24 816.32 524 820.55 524.08 825.79V859.23L543.03 850.6 543.11 825.79C543.03 820.55 538.79 816.32 533.55 816.32Z" fill="#cecece00" opacity="0" stroke="#00000000" stroke-width="4"></path><path d="M600.05 975.42C598.74 974.27 534.09 917.79 534.09 917.79H532.94C532.94 917.79 468.29 974.27 466.98 975.42 465.37 976.35 463.59 980.89 466.14 983.82 468.14 986.29 471.68 986.9 474.38 985.13 474.53 985.06 509.9 960.78 531.09 946.22 532.55 945.22 534.4 945.22 535.87 946.22 557.06 960.78 592.5 985.06 592.58 985.13 595.35 986.9 598.97 986.21 600.82 983.82 603.44 980.82 601.67 976.35 600.05 975.42Z" fill="#1f1f1f" opacity="1" stroke-width="4" stroke="#00000000"></path><path d="M518.14 914.09H548.89C550.74 914.09 552.2 915.56 552.2 917.41V933.89H514.75V917.41C514.83 915.56 516.3 914.09 518.14 914.09Z" fill="#2c2c2c" opacity="1" stroke-width="4" stroke="#00000000"></path><path d="M514.83 810.31H552.28V835.96C552.28 837.27 551.2 838.43 549.81 838.43H517.22C515.91 838.43 514.83 837.35 514.83 835.96V810.31Z" fill="#2c2c2c" opacity="1" stroke-width="4" stroke="#00000000"></path><path d="M478.16 795.05H588.88C596.27 795.05 602.21 801.06 602.21 808.38 602.21 815.78 596.2 821.71 588.88 821.71H478.16C470.76 821.71 464.83 815.7 464.83 808.38 464.83 801.06 470.84 795.05 478.16 795.05Z" fill="#1f1f1f" opacity="1" stroke-width="4" stroke="#00000000"></path></g><g><path d="M673.75 599.99L682.96 611.15C682.96 611.15 702.42 583.52 720.39 560.92 731.02 547.44 745.32 527.98 751.31 527.53 753.93 527.38 758.87 529.25 755.2 542.5 755.2 542.5 770.55 539.43 782.3 544.37L785.89 548.26C785.89 548.26 765.61 587.72 765.76 587.79L754.3 596.77C752.95 600.44 729.22 676.57 691.72 685.63 667.69 691.47 648.82 675.6 639.84 666.47L673.75 599.99Z" fill="#a15842" opacity="1" stroke-width="4" stroke="#00000000"></path><path d="M705.72 903.77V911.56C708.26 920.69 711.26 930.57 714.7 939.93L722.49 943H781.48L786.04 894.42C784.99 891.87 783.35 883.79 781.48 874.13L779.23 865.74 705.72 903.77Z" fill="#a15842" opacity="1" stroke-width="4" stroke="#00000000"></path><path d="M652.79 966.36L674.43 924.43C674.95 919.42 676.52 912.53 678.62 905.35L680.64 894.34 598.89 892.99 594.93 904.52C593.2 913.36 591.63 923.31 590.58 932.82L592.83 937.83 652.79 966.36Z" fill="#a15842" opacity="1" stroke-width="4" stroke="#00000000"></path><path d="M599.64 805.26L691.57 804.96C691.42 837.07 692.62 861.85 705.87 911.56L781.7 874.5C779.68 864.55 777.43 852.27 775.19 840.14 766.58 794.63 763.96 762.89 741.58 739.83 713.13 710.71 637.6 704.65 637.6 704.65L631.91 701.73 538.41 696.71 532.72 722.76C523.58 765.28 556.07 805.48 599.64 805.26Z" fill="#2c2c2c" opacity="1" stroke-width="4" stroke="#00000000"></path><path d="M700.63 890.45C728.4 830.11 733.57 785.49 707.59 764.68L691.42 805.03C691.42 832.21 692.24 854.07 700.63 890.45Z" fill="#2c2c2c00" opacity="0" stroke="#00000000" stroke-width="4"></path><path d="M559.82 805.63H628.31C613.86 834.23 601.89 867.39 594.55 905.27L678.54 905.27C691.87 861.63 729.75 783.7 702.72 751.66 669.64 712.36 561.84 700.3 561.84 700.3L509.81 697.01C509.81 697.01 500.53 712.88 494.76 738.03 486.9 772.69 507.41 805.63 559.82 805.63Z" fill="#2c2c2c" opacity="1" stroke-width="4" stroke="#00000000"></path><path d="M573.96 805.63C551.36 805.63 628.61 805.63 628.61 805.63L642.39 779.81C631.68 776.66 603.61 805.63 573.96 805.63Z" fill="#2c2c2c00" opacity="0" stroke="#00000000" stroke-width="4"></path><path d="M694.79 859.31C708.79 819.26 721.89 774.12 703.02 751.58 693.22 740.05 677.35 730.92 659.53 723.81" stroke="#000000" stroke-width="4" stroke-linecap="round" stroke-linejoin="round" opacity="1" fill="none"></path><path d="M594.7 905.35L678.62 905.35" stroke="#00000000" stroke-width="4" stroke-linecap="round" stroke-linejoin="round" opacity="1" fill="none"></path><path d="M705.72 911.71L781.55 874.65" stroke="#00000000" stroke-width="4" stroke-linecap="round" stroke-linejoin="round" opacity="1" fill="none"></path><path d="M627.04 527.83C618.28 536.06 601.74 531.5 601.74 531.5V579.41L547.39 570.95 545.52 544.75V488.38C545.52 470.48 545.89 446.01 565.21 437.7 586.77 428.34 615.74 435.82 624.2 447.05 632.65 458.13 630.78 476.92 631.76 488.23 632.8 499.46 638.42 517.35 627.04 527.83Z" fill="#a15842" opacity="1" stroke-width="4" stroke="#00000000"></path><path d="M601.74 531.5V538.46L585.49 524.46C593.95 529.4 601.74 531.5 601.74 531.5Z" fill="#a1584200" opacity="0" stroke="#00000000" stroke-width="4"></path><path d="M631.16 470.41C631.16 470.41 620.98 475.65 610.95 464.8 612.37 473.4 604.88 485.83 588.34 477.07 591.63 489.27 583.02 493.92 583.02 493.92 583.02 493.92 568.65 478.72 557.72 488.9 547.39 500.58 566.25 517.35 566.25 517.35 561.91 523.04 552.78 526.7 545.44 526.26L545.37 488.23C545.37 470.34 545.82 445.93 565.13 437.62 586.69 428.26 615.66 435.75 624.12 446.98 628.99 453.19 630.71 461.28 631.16 470.41Z" fill="#30242a" opacity="1" stroke-width="4" stroke="#00000000"></path><path d="M574.11 504.4L567.53 497.96" stroke="#00000000" stroke-width="4" stroke-linecap="round" stroke-linejoin="round" opacity="1" fill="#ffffff00"></path><path d="M589.68 527.53C589.68 527.53 593.95 530.97 601.89 532.92" stroke="#00000000" stroke-width="4" stroke-linecap="round" stroke-linejoin="round" opacity="1" fill="#ffffff00"></path><path d="M617.23 510.76C614.69 510.46 612.44 509.34 611.02 507.17" stroke="#00000000" stroke-width="4" stroke-linecap="round" stroke-linejoin="round" opacity="1" fill="#ffffff00"></path><path d="M463.4 616.31C479.04 584.5 497.23 566.01 508.54 557.47 518.34 549.99 531.97 543.47 545.52 541.08 545.52 541.08 557.79 563.24 579.13 563.24 601.36 563.24 601.74 541.15 601.74 541.15 604.88 541.53 624.2 547.29 641.26 564.36 652.79 576.04 666.49 590.26 674.8 601.19L639.99 666.69C637.22 663.62 634.45 660.63 632.21 657.33L633.78 705.25 505.62 705.25 511.08 663.62 519.99 646.48 463.4 616.31Z" fill="#ffffff" opacity="1" stroke-width="4" stroke="#00000000"></path><path d="M648.52 674.25C645.08 671.56 642.24 668.94 639.99 666.69 637.22 663.62 634.45 660.63 632.21 657.33L630.71 625C632.73 625.89 634.3 627.69 634.98 629.79L648.52 674.25Z" fill="#ffffff00" opacity="0" stroke="#00000000" stroke-width="4"></path><path d="M529.27 630.53L548.21 705.1H505.69V674.78L529.27 630.53Z" fill="#ffffff00" opacity="0" stroke="#00000000" stroke-width="4"></path><path d="M618.06 502.38C618.88 502.08 619.4 501.55 619.78 500.8 620.15 499.61 619.4 497.51 618.88 496.16" stroke="#00000000" stroke-width="4" stroke-linecap="round" stroke-linejoin="round" opacity="1" fill="#ffffff00"></path><path d="M607.28 493.92C606 493.92 604.96 492.88 604.96 491.6 604.96 490.32 606 489.27 607.28 489.27 608.56 489.27 609.6 490.32 609.6 491.6 609.6 492.88 608.56 493.92 607.28 493.92Z" fill="#30242a00" opacity="1" stroke-width="4" stroke="#ffffff00"></path><path d="M625.62 492.12C624.34 492.12 623.3 491.08 623.3 489.8 623.3 488.52 624.34 487.48 625.62 487.48 626.91 487.48 627.94 488.52 627.94 489.8 627.94 491.08 626.91 492.12 625.62 492.12Z" fill="#30242a00" opacity="1" stroke-width="4" stroke="#ffffff00"></path><path d="M702.95 978.86L587.96 978.93V978.71C587.96 972.34 588.26 965.91 588.49 959.77 588.64 957.37 588.79 954.75 588.86 952.36 589.24 945.77 589.68 939.11 590.43 932.74 625.77 934.32 647.18 955.65 647.18 955.65L644.11 936.64C642.91 929.75 648.23 923.69 655.11 923.69H674.58C674.43 924.51 674.43 925.11 674.28 925.93 674.13 927.65 674.13 929.52 674.13 931.1 674.28 960.44 694.11 964.04 702.8 978.56L702.95 978.86Z" fill="#ffbc32" opacity="1" stroke-width="4" stroke="#00000000"></path><path d="M704.89 983.05C705.94 986.19 706.62 989.94 706.62 994.43H588.11C587.96 988.89 587.81 983.35 587.96 978.03H702.5C703.4 979.53 704.22 981.25 704.89 983.05Z" fill="#000000" opacity="1" stroke-width="4" stroke="#00000000"></path><path d="M663.65 952.21L676.75 946.67" stroke="#00000000" stroke-width="4" stroke-linecap="round" stroke-linejoin="round" opacity="1" fill="none"></path><path d="M671.73 965.16L682.81 956.7" stroke="#00000000" stroke-width="4" stroke-linecap="round" stroke-linejoin="round" opacity="1" fill="none"></path><path d="M651.89 978.78L647.1 955.5" stroke="#00000000" stroke-width="4" stroke-linecap="round" stroke-linejoin="round" opacity="1" fill="none"></path><path d="M835.52 929.75L732.29 981.4C732.14 981.25 732.14 981.25 731.99 981.1 729.22 975.41 726.3 969.2 723.98 963.51 723.08 961.12 721.96 958.72 721.06 956.47 718.67 950.64 716.42 944.95 714.33 939.26 747.56 924.06 777.06 934.09 777.06 934.09L767.1 919.79C762.61 913.28 765.01 904.3 772.12 900.85L785.97 894.19C785.97 894.19 785.97 894.27 786.04 894.34 786.87 896.06 787.46 897.63 788.29 899.13 801.61 925.33 820.55 920.02 834.85 929.15 835.15 929.38 835.52 929.75 835.52 929.75Z" fill="#ffbc32" opacity="1" stroke-width="4" stroke="#00000000"></path><path d="M846.08 942.18L739.7 995.25C737.31 991.66 734.46 986.27 731.84 980.95L835.37 929.6C836.57 930.42 837.7 931.32 838.89 932.37 841.59 934.77 843.98 937.76 846.08 942.18Z" fill="#000000" opacity="1" stroke-width="4" stroke="#00000000"></path><path d="M790.01 923.61L799.14 912.68" stroke="#00000000" stroke-width="4" stroke-linecap="round" stroke-linejoin="round" opacity="1" fill="none"></path><path d="M803.63 930.65L809.62 918.07" stroke="#00000000" stroke-width="4" stroke-linecap="round" stroke-linejoin="round" opacity="1" fill="none"></path><path d="M791.96 952.21L777.28 934.09" stroke="#00000000" stroke-width="4" stroke-linecap="round" stroke-linejoin="round" opacity="1" fill="none"></path><path d="M497.46 773.37C506.82 773.37 514.83 766.63 516.4 757.5L520.36 734.44H495.66" stroke="#00000000" stroke-width="4" stroke-linecap="round" stroke-linejoin="round" opacity="1" fill="none"></path><path d="M638.94 786.02C635.65 792.23 628.46 805.63 628.46 805.63" stroke="#00000000" stroke-width="4" stroke-linecap="round" stroke-linejoin="round" opacity="1" fill="none"></path><path d="M795.47 530.6L778.78 514.65 760.96 533.37 725.33 570.8 742.02 586.74 795.47 530.6Z" fill="#1f1f1f" opacity="1" stroke-width="4" stroke="#00000000"></path><path d="M769.35 597.9C778.93 595.5 776.31 588.01 776.31 588.01 780.95 587.12 782.6 584.27 783.27 582.03 783.95 579.56 783.5 577.31 783.5 577.31 786.12 575.51 787.54 573.42 787.84 571.1 788.29 567.13 785.07 563.76 785.07 563.76 785.14 563.76 791.51 561.96 790.76 554.7 790.01 548.86 784.99 545.79 782.37 544.6L777.51 549.61C772.94 548.04 763.06 546.17 758.64 551.48 755.87 555.9 759.99 558.3 759.99 558.37 759.92 558.37 752.36 558.44 751.38 563.09 750.33 567.73 754.6 570.65 754.68 570.65 754.6 570.65 748.39 571.99 748.01 577.61 747.86 583.22 755.05 585.17 755.05 585.17 751.68 586.29 748.54 589.29 749.14 593.48 749.66 596.25 751.83 601.26 769.35 597.9Z" fill="#a15842" opacity="1" stroke-width="4" stroke="#00000000"></path><path d="M776.39 549.24C771.82 547.67 762.99 545.94 758.57 551.33 755.8 555.75 759.92 558.15 759.92 558.22 759.84 558.22 752.28 558.3 751.31 562.94 750.26 567.58 754.53 570.5 754.6 570.5 754.53 570.5 748.31 571.84 747.94 577.46 747.79 583.07 754.98 585.02 754.98 585.02 751.61 586.14 748.46 589.14 749.06 593.33 749.44 594.9 750.26 597.15 753.93 598.27" stroke="#000000" stroke-width="4" stroke-linecap="round" stroke-linejoin="round" opacity="1" fill="none"></path><path d="M682.96 611.15V630.91" stroke="#00000000" stroke-width="4" stroke-linecap="round" stroke-linejoin="round" opacity="1" fill="none"></path><path d="M784.99 563.69C770.4 562.79 759.99 558.3 759.99 558.3" stroke="#000000" stroke-width="4" stroke-linecap="round" stroke-linejoin="round" opacity="1" fill="none"></path><path d="M783.42 577.23C766.95 576.34 754.6 570.5 754.6 570.5" stroke="#000000" stroke-width="4" stroke-linecap="round" stroke-linejoin="round" opacity="1" fill="none"></path><path d="M776.31 587.94C762.46 587.19 754.98 585.02 754.98 585.02" stroke="#000000" stroke-width="4" stroke-linecap="round" stroke-linejoin="round" opacity="1" fill="none"></path><path d="M625.69 703C632.13 709.81 625.32 715.58 619.1 713.93 623.07 724.48 607.43 722.01 607.43 722.01 607.43 722.01 607.73 727.18 596.2 727.18 584.67 727.18 546.34 714.83 546.34 714.83 546.34 714.83 509.88 718.42 492.14 717.45 474.25 716.55 430.38 716.1 443.71 666.47 448.2 650.22 453.14 635.55 463.55 616.09L521.94 644.31C515.35 656.59 512.8 662.57 512.8 662.57 512.8 662.57 562.74 671.56 586.84 677.77 610.72 684.36 624.42 690.2 628.09 695.66 631.16 700.53 625.69 703 625.69 703Z" fill="#a15842" opacity="1" stroke-width="4" stroke="#00000000"></path><path d="M492.22 666.54L512.73 662.65" stroke="#00000000" stroke-width="4" stroke-linecap="round" stroke-linejoin="round" opacity="1" fill="none"></path><path d="M530.99 628.66L521.86 644.38" stroke="#000000" stroke-width="4" stroke-linecap="round" stroke-linejoin="round" opacity="1" fill="none"></path><path d="M579.28 711.46L607.43 722.01" stroke="#000000" stroke-width="4" stroke-linecap="round" stroke-linejoin="round" opacity="1" fill="none"></path><path d="M583.4 700.15L619.1 713.93" stroke="#000000" stroke-width="4" stroke-linecap="round" stroke-linejoin="round" opacity="1" fill="none"></path><path d="M588.94 689C616.63 697.46 625.69 703.07 625.69 703.07" stroke="#000000" stroke-width="4" stroke-linecap="round" stroke-linejoin="round" opacity="1" fill="none"></path><path d="M632.43 657.33L630.63 616.16" stroke="#000000" stroke-width="4" stroke-linecap="round" stroke-linejoin="round" opacity="1" fill="none"></path></g><g><path d="M513.18 238.11L494.72 171.73" stroke="#000000" stroke-width="4" stroke-linecap="round" stroke-linejoin="round" opacity="1" fill="none"></path><path d="M485.45 326.35L409.93 254.01" stroke="#000000" stroke-width="4" stroke-linecap="round" stroke-linejoin="round" opacity="1" fill="none"></path><path d="M436.92 372.54L383.48 361.39" stroke="#000000" stroke-width="4" stroke-linecap="round" stroke-linejoin="round" opacity="1" fill="none"></path></g><g><path d="M870.07 572.03L868.08 576.75 866.4 581.83C866.4 581.9 866.4 581.96 866.53 581.96L872.11 582.14 877.39 580.53C877.45 580.53 877.45 580.47 877.45 580.47L874.53 575.88 871.49 571.84C871.06 571.35 870.25 571.47 870.07 572.03Z" fill="#e8e8e8" opacity="1" stroke-width="4" stroke="#00000000"></path><path d="M896.68 561.48L893.71 565.39 890.85 569.79V569.85L896.19 571.53 901.71 571.34C901.77 571.34 901.83 571.28 901.77 571.22L900.16 566.19 898.3 561.6C898.11 560.98 897.12 560.86 896.68 561.48Z" fill="#e8e8e8" opacity="1" stroke-width="4" stroke="#00000000"></path><path d="M883.34 623.9L890.85 569.86C890.85 569.8 890.91 569.8 890.91 569.8L901.83 571.35C901.9 571.35 901.9 571.41 901.9 571.41L894.39 625.45 883.34 623.9Z" fill="#ffffff" opacity="1" stroke-width="4" stroke="#00000000"></path><path d="M897.8 559.19L893.77 565.39 900.28 566.26 897.92 559.19C897.86 559.12 897.8 559.12 897.8 559.19Z" fill="#ffffff" opacity="1" stroke-width="4" stroke="#00000000"></path><path d="M866.4 581.9L877.39 580.47C877.45 580.47 877.45 580.47 877.45 580.53L884.46 634.64 873.35 636.06 866.34 581.96C866.34 581.9 866.4 581.9 866.4 581.9Z" fill="#2c2c2c" opacity="1" stroke-width="4" stroke="#00000000"></path><path d="M870.38 569.67L868.02 576.75 874.47 575.88 870.5 569.67C870.5 569.61 870.44 569.61 870.38 569.67Z" fill="#2c2c2c" opacity="1" stroke-width="4" stroke="#00000000"></path><path d="M898.86 666.59H866.4C866.4 666.59 866.34 666.59 866.34 666.53L858.96 631.29 856.04 609.01C856.04 608.95 856.04 608.95 856.1 608.95H909.34C909.4 608.95 909.4 609.01 909.4 609.01L906.49 631.29 898.86 666.59C898.92 666.59 898.92 666.53 898.86 666.59Z" fill="#ffbc32" opacity="1" stroke-width="4" stroke="#00000000"></path><path d="M858.96 631.29L863.86 668.51H901.65L906.49 631.29H858.96Z" fill="#ffffff" opacity="1" stroke-width="4" stroke="#00000000"></path></g></svg>