<svg xmlns="http://www.w3.org/2000/svg" height="1200" width="1600" version="1.1" xmlns:xlink="http://www.w3.org/1999/xlink" xmlns:svgjs="http://svgjs.com/svgjs"><rect fill="#0000" width="1600" height="1200"></rect><g><path d="M313.31 190.29H981.88C1012.45 190.29 1037.26 215.09 1037.26 245.66V662.49C1037.26 693.06 1012.45 717.87 981.88 717.87H313.31C282.74 717.87 257.93 693.06 257.93 662.49V245.49C257.93 215.09 282.74 190.29 313.31 190.29Z" fill="#cecece" opacity="1" stroke-width="4" stroke="#00000000"></path><path d="M335.32 242.69H959.69C973.49 242.69 984.67 253.88 984.67 267.68V640.48C984.67 654.28 973.49 665.46 959.69 665.46H335.32C321.52 665.46 310.34 654.28 310.34 640.48V267.68C310.34 253.88 321.52 242.69 335.32 242.69Z" fill="#ffffff" opacity="1" stroke-width="4" stroke="#00000000"></path></g><g><path d="M895.11 871.59L904.2 995.02C904.47 998.6 901.81 1001.63 898.23 1001.91 898.05 1001.91 897.95 1001.91 897.77 1001.91 895.02 1001.91 892.54 1000.16 891.71 997.5L850.23 871.59H895.11Z" fill="#2c2c2c" opacity="1" stroke-width="4" stroke="#00000000"></path><path d="M989.64 871.59L1022.86 994.11C1023.78 997.32 1021.85 1000.62 1018.64 1001.54 1018.09 1001.72 1017.63 1001.72 1017.08 1001.72 1014.87 1001.72 1012.76 1000.44 1011.75 998.51L944.76 871.59H989.64Z" fill="#2c2c2c" opacity="1" stroke-width="4" stroke="#00000000"></path><path d="M872.17 833.96H1320.94L1354.99 728.24C1363.06 703.18 1349.3 676.39 1324.24 668.31 1319.56 666.75 1314.61 666.02 1309.65 666.02H961C940.35 666.02 922 679.32 915.67 699.06L872.17 833.96Z" fill="#2c2c2c" opacity="1" stroke-width="4" stroke="#00000000"></path><path d="M1316.35 871.59L1349.57 994.11C1350.49 997.32 1348.56 1000.62 1345.35 1001.54 1344.8 1001.72 1344.34 1001.72 1343.79 1001.72 1341.59 1001.72 1339.48 1000.44 1338.47 998.51L1271.47 871.59H1316.35Z" fill="#2c2c2c" opacity="1" stroke-width="4" stroke="#00000000"></path><path d="M1221.82 871.59L1230.91 995.02C1231.18 998.6 1228.52 1001.63 1224.94 1001.91 1224.76 1001.91 1224.67 1001.91 1224.48 1001.91 1221.73 1001.91 1219.25 1000.16 1218.43 997.5L1176.95 871.59H1221.82Z" fill="#2c2c2c" opacity="1" stroke-width="4" stroke="#00000000"></path><path d="M1176.95 871.59H1221.82L1224.03 900.96H1186.58L1176.95 871.59Z" fill="#2c2c2c00" opacity="0" stroke="#00000000" stroke-width="4"></path><path d="M850.23 871.59H895.11L897.31 900.96H859.87L850.23 871.59Z" fill="#2c2c2c00" opacity="0" stroke="#00000000" stroke-width="4"></path><path d="M1316.35 871.59L1324.33 900.96H1286.98L1271.47 871.59H1316.35Z" fill="#2c2c2c00" opacity="0" stroke="#00000000" stroke-width="4"></path><path d="M989.64 871.59L997.62 900.96H960.27L944.76 871.59H989.64Z" fill="#2c2c2c00" opacity="0" stroke="#00000000" stroke-width="4"></path><path d="M1233.75 814.69H838.21C817.47 814.69 800.58 831.58 800.58 852.32 800.58 873.06 817.47 889.94 838.21 889.94H1233.75C1254.49 889.94 1271.38 873.06 1271.38 852.32 1271.38 831.58 1254.49 814.69 1233.75 814.69Z" fill="#2c2c2c" opacity="1" stroke-width="4" stroke="#00000000"></path><path d="M1331.95 814.69H1164.92C1144.18 814.69 1127.3 831.58 1127.3 852.32 1127.3 873.06 1144.18 889.94 1164.92 889.94H1331.95C1352.69 889.94 1369.58 873.06 1369.58 852.32 1369.58 831.58 1352.69 814.69 1331.95 814.69Z" fill="#000000" opacity="1" stroke-width="4" stroke="#00000000"></path><path d="M954.49 889.94H994.59" stroke="#000000" stroke-width="4" stroke-linecap="round" stroke-linejoin="round" opacity="1" fill="none"></path><path d="M856.29 889.94H896.49" stroke="#000000" stroke-width="4" stroke-linecap="round" stroke-linejoin="round" opacity="1" fill="none"></path><path d="M1327.18 814.69H878.41" stroke="#000000" stroke-width="4" stroke-linecap="round" stroke-linejoin="round" opacity="1" fill="none"></path><path d="M1310.93 852.32H1196.13" stroke="#00000000" stroke-width="4" stroke-linecap="round" stroke-linejoin="round" opacity="1" fill="none"></path><path d="M1321.31 889.94H1281.2" stroke="#00000000" stroke-width="4" stroke-linecap="round" stroke-linejoin="round" opacity="1" fill="none"></path><path d="M1223.2 889.94H1183" stroke="#00000000" stroke-width="4" stroke-linecap="round" stroke-linejoin="round" opacity="1" fill="none"></path></g><g><path d="M809.8 406.48C809.8 406.3 809.62 406.21 809.44 406.3 805.92 408.38 801.41 409.55 796.99 409.55 793.39 409.55 788.25 408.74 784.1 405.04 777.43 399 775.45 390.88 776.8 374.66 776.8 374.57 776.8 374.48 776.71 374.48 775.72 373.66 771.39 369.97 771.48 366.99 771.57 364.29 776.8 362.21 778.06 361.85 778.15 361.85 778.24 361.76 778.24 361.67L778.42 360.05C779.05 354.1 780.41 348.24 782.03 343.46 785.45 333.18 793.03 329.4 797.36 323.36 797.36 323.36 797.36 323.27 797.45 323.27 805.56 317.77 811.69 322.9 821.97 322.9 829.81 322.9 835.67 316.77 841.8 320.2 857.58 328.95 862 352.12 862.54 360.95 862.9 367.53 863.44 379.34 863.89 390.7 864.34 401.79 864.88 413.24 865.24 420.1V420.28L812.86 422.98C812.77 422.98 812.59 422.89 812.59 422.8L811.42 416.13 809.8 406.48Z" fill="#cf5934" opacity="1" stroke-width="4" stroke="#00000000"></path><path d="M809.71 406.12L810.52 405.67C814.31 403.6 817.37 401.34 820.71 398.82 820.89 398.64 821.25 398.91 821.07 399.18L811.78 415.32C811.69 415.5 811.33 415.5 811.33 415.23L809.71 406.12Z" fill="#cf593400" opacity="0" stroke="#00000000" stroke-width="4"></path><path d="M790.95 378.8C790.23 381.87 786.18 383.22 783.92 382.95" stroke="#00000000" stroke-width="4" stroke-linecap="round" stroke-linejoin="round" opacity="1" fill="#ffffff00"></path><path d="M788.43 365.37C789.73 365.37 790.77 364.32 790.77 363.03 790.77 361.73 789.73 360.68 788.43 360.68 787.13 360.68 786.09 361.73 786.09 363.03 786.09 364.32 787.13 365.37 788.43 365.37Z" fill="#231f2000" opacity="1" stroke-width="4" stroke="#ffffff00"></path><path d="M821.7 398.1C821.7 398.1 814.21 403.69 809.71 406.12" stroke="#00000000" stroke-width="4" stroke-linecap="round" stroke-linejoin="round" opacity="1" fill="none"></path><path d="M856.59 322.72C867.9 322.72 877.06 313.56 877.06 302.26 877.06 290.95 867.9 281.79 856.59 281.79 845.28 281.79 836.12 290.95 836.12 302.26 836.12 313.56 845.28 322.72 856.59 322.72Z" fill="#231f20" opacity="1" stroke-width="4" stroke="#00000000"></path><path d="M622.81 607.9C620.46 607.9 617.58 606.55 616.95 600.05 616.86 600.05 616.86 600.05 616.77 600.05 609.91 600.05 608.83 593.38 612.17 585.9 614.15 580.94 619.02 569.13 623.71 562.01 623.8 561.83 623.71 561.65 623.53 561.65 621.64 561.47 616.59 560.65 615.23 557.86 615.23 557.86 615.23 557.86 615.23 557.77 613.07 549.84 631.1 541.9 652.29 530.63 660.58 526.39 668.7 522.52 677.26 519.9 677.35 519.9 677.44 519.9 677.53 519.99L698.27 539.11C698.36 539.2 698.36 539.2 698.36 539.29 698.45 541.18 699.44 567.6 694.75 568.68 676.36 571.38 669.6 578.14 664.82 592.12 663.29 597.17 659.68 604.11 655.63 598.79 653.82 596 652.92 590.59 653.1 586.89 653.1 586.62 652.74 586.53 652.65 586.8 649.04 594.01 639.4 611.14 628.94 605.91 628.85 605.91 628.76 605.91 628.67 605.91 627.95 606.27 625.33 607.9 622.81 607.9Z" fill="#cf5934" opacity="1" stroke-width="4" stroke="#00000000"></path><path d="M617.04 599.87C625.51 578.6 638.68 560.38 638.68 560.38" stroke="#000000" stroke-width="4" stroke-linecap="round" stroke-linejoin="round" opacity="1" fill="none"></path><path d="M628.76 605.45C638.13 584.99 649.49 566.05 649.49 566.05" stroke="#000000" stroke-width="4" stroke-linecap="round" stroke-linejoin="round" opacity="1" fill="none"></path><path d="M653.19 585.54L659.41 572.1" stroke="#000000" stroke-width="4" stroke-linecap="round" stroke-linejoin="round" opacity="1" fill="none"></path><path d="M677.44 519.9L677.62 519.81C698.36 512.06 733.7 499.08 736.05 498.17 736.14 498.17 736.14 498.08 736.14 498.08 737.22 496.46 748.85 478.88 764.99 460.58 780.41 442.91 803.13 420.82 823.68 416.13 831.53 414.33 838.92 413.42 845.59 413.42 873.09 413.42 890.49 428.48 898.78 459.5 899.69 462.92 900.68 466.53 901.76 470.31 907.08 489.7 913.75 513.77 918.35 545.24L822.78 545.33 822.69 545.24C822.6 545.15 809.53 532.79 804.75 518.73 804.66 518.55 804.48 518.46 804.3 518.64 792.76 530.09 779.5 539.65 765.08 547.04 742.81 558.67 695.2 568.59 694.66 568.68H694.48L677.44 519.9Z" fill="#ffbb30" opacity="1" stroke-width="4" stroke="#00000000"></path><path d="M822.6 545.06C822.51 545.06 822.51 545.06 822.42 544.97 821.34 543.97 808.99 531.89 804.66 518.37L804.93 518.1 825.3 498.35C825.39 498.26 825.57 498.26 825.67 498.35 826.3 499.35 828.46 503.04 828.91 510.98 829.81 521.71 830.98 534.96 848.2 544.97H847.57L822.6 545.06Z" fill="#ffbb3000" opacity="0" stroke="#00000000" stroke-width="4"></path><path d="M804.75 518.19L825.48 498.17" stroke="#000000" stroke-width="4" stroke-linecap="round" stroke-linejoin="round" opacity="1" fill="none"></path><path d="M916.18 507.91C914.83 507.91 912.31 507.82 911.59 507.73 911.5 507.73 911.41 507.64 911.41 507.55 903.02 470.68 893.28 445.97 892.2 443.09 892.2 443 892.11 442.91 891.93 442.91 891.57 442.91 890.76 443 889.77 443 879.04 443 843.25 439.3 831.71 391.43V391.34L831.8 391.25C831.98 391.07 853.07 377.27 846.13 362.66 843.88 357.98 840.27 355.63 835.4 355.63 826.66 355.63 816.38 363.39 814.94 364.56 814.85 364.65 814.67 364.65 814.58 364.56 813.58 363.57 808.17 357.53 810.7 347.61 810.79 347.34 810.52 347.16 810.34 347.34 807.09 349.59 804.21 350.76 801.77 350.76 798.53 350.76 796.09 348.6 794.83 344.54 794.2 342.47 794.02 340.4 793.93 339.22 793.93 339.04 793.66 338.95 793.48 339.04 789.24 342.74 787.08 344.09 782.21 343.37 782.12 343.37 782.03 343.28 781.94 343.1 781.31 337.24 786.45 323.9 794.29 318.49 802.4 312.99 813.22 310.73 823.5 310.73 831.35 310.73 838.83 312.54 844.96 315.96 858.75 323.54 866.69 344.27 868.49 355.99 868.49 356.17 868.67 356.26 868.85 356.17 871.29 355.27 882.65 351.49 896.53 351.49 908.61 351.49 919.34 354.28 928.45 359.69 944.95 369.61 950.08 384.12 951.44 394.58 953.15 407.38 950.17 419.65 946.75 427.22 946.66 427.31 946.75 427.49 946.84 427.58 962.08 435.24 970.46 455.89 966.22 474.82 963.79 484.65 954.32 507.91 916.18 507.91Z" fill="#231f20" opacity="1" stroke-width="4" stroke="#00000000"></path><path d="M677.62 519.99L694.75 568.68" stroke="#00000000" stroke-width="4" stroke-linecap="round" stroke-linejoin="round" opacity="1" fill="none"></path><path d="M705.57 510.07L724.33 560.56" stroke="#00000000" stroke-width="4" stroke-linecap="round" stroke-linejoin="round" opacity="1" fill="none"></path><path d="M832.7 371.23L826.39 375.74" stroke="#00000000" stroke-width="4" stroke-linecap="round" stroke-linejoin="round" opacity="1" fill="#ffffff00"></path><path d="M822.51 545.06L918.35 545.24" stroke="#00000000" stroke-width="4" stroke-linecap="round" stroke-linejoin="round" opacity="1" fill="none"></path></g><g><path d="M929.51 619.17H365.51V647.17H929.51V619.17Z" fill="#1f1f1f" opacity="1" stroke-width="4" stroke="#00000000"></path></g><g><path d="M633.11 627.17H375.51V639.17H633.11V627.17Z" fill="#ffffff" opacity="1" stroke-width="4" stroke="#00000000"></path></g><g><path d="M444.04 325.7C464.53 324.89 466.55 316.42 474.37 328.2 475.34 329.65 487.04 327.88 487.84 329.81 490.35 336.59 491.64 346.75 493.01 355.87 493.01 355.87 500.27 357.32 500.83 360.39 501.4 363.93 495.02 368.94 495.02 368.94 497.69 377.24 498.98 386.76 492.93 395.23 484.21 407.49 462.03 404.27 462.03 404.27L461.79 409.91 441.38 420.16 407.02 409.91 406.86 405.4C408.87 387.81 414.6 355.79 414.6 346.51 414.6 321.1 420.49 326.59 444.04 325.7Z" fill="#e59763" opacity="1" stroke-width="4" stroke="#00000000"></path><path d="M461.95 404.27L461.71 409.91 452.67 417.25 443.64 404.35C442.03 402.01 444.37 399.11 447.03 400.07L461.95 404.27Z" fill="#e5976300" opacity="0" stroke="#00000000" stroke-width="4"></path><path d="M485.42 325.05C477.52 313.2 464.29 307.06 443.56 307.87 419.84 308.76 405.57 322.71 405.48 348.29 405.48 357.32 406.29 387.81 406.86 405.4 406.86 405.4 425.41 405.16 433.56 394.59 433.56 394.59 416.46 378.29 424.6 366.11 432.75 353.93 451.46 368.53 451.46 368.53 463.81 362.72 459.37 350.46 458.24 347.88 458.16 347.72 458.32 347.48 458.56 347.56 462.11 348.69 483.25 354.42 477.68 334.81 477.6 334.57 477.76 334.41 478 334.41 485.83 334.25 487.84 329.81 487.84 329.81 487.2 328.12 486.31 326.59 485.42 325.05Z" fill="#c65a42" opacity="1" stroke-width="4" stroke="#00000000"></path><path d="M487.76 375.55C482.04 376.52 478.81 371.68 478.81 371.68" stroke="#00000000" stroke-width="4" stroke-linecap="round" stroke-linejoin="round" opacity="1" fill="#ffffff00"></path><path d="M461.95 404.27L448.88 400.64" stroke="#00000000" stroke-width="4" stroke-linecap="round" stroke-linejoin="round" opacity="1" fill="none"></path><path d="M445.58 379.66L438.56 376.52" stroke="#00000000" stroke-width="4" stroke-linecap="round" stroke-linejoin="round" opacity="1" fill="#ffffff00"></path><path d="M483.25 358.77C484.63 358.77 485.75 357.65 485.75 356.27 485.75 354.89 484.63 353.77 483.25 353.77 481.87 353.77 480.75 354.89 480.75 356.27 480.75 357.65 481.87 358.77 483.25 358.77Z" fill="#231f2000" opacity="1" stroke-width="4" stroke="#ffffff00"></path><path d="M545.92 503.97C531.89 510.59 520.76 516.07 520.76 516.07 520.76 516.07 513.5 475.74 504.62 453.15 495.75 430.56 482.84 418.46 461.87 416.85L461.71 409.91H407.02V417.5C381.45 420.8 365.88 455.49 355.39 492.6 348.37 517.52 345.15 550.84 357.49 572.05 366.44 587.54 389.75 583.83 393.55 566.33L476.95 566.49C476.95 566.49 490.1 584.56 517.53 581.33 533.82 579.39 557.22 565.92 575.77 553.66L577.87 551.24 553.75 503.65 545.92 503.97Z" fill="#e3e3e3" opacity="1" stroke-width="4" stroke="#00000000"></path><path d="M365.31 579.64C365.39 579.64 365.39 579.72 365.47 579.72 374.35 584.64 388.87 580.93 393.14 568.02L393.55 566.25 388.54 528.41C381.28 528.41 384.43 543.42 380.4 562.78 376.93 579.56 365.31 579.64 365.31 579.64Z" fill="#e3e3e300" opacity="0" stroke="#00000000" stroke-width="4"></path><path d="M476.95 566.49C469.21 552.69 458.64 527.36 453 495.9" stroke="#000000" stroke-width="4" stroke-linecap="round" stroke-linejoin="round" opacity="1" fill="none"></path><path d="M386.37 512.28L393.55 566.33" stroke="#000000" stroke-width="4" stroke-linecap="round" stroke-linejoin="round" opacity="1" fill="none"></path><path d="M520.76 516.07L512.53 533.49" stroke="#000000" stroke-width="4" stroke-linecap="round" stroke-linejoin="round" opacity="1" fill="none"></path><path d="M373.94 545.11L390.32 541.88" stroke="#000000" stroke-width="4" stroke-linecap="round" stroke-linejoin="round" opacity="1" fill="none"></path><path d="M622.07 493L614.09 500.99C613.76 501.31 613.28 501.63 612.8 501.71 610.62 502.2 604.17 503.57 598.2 503.16 596.02 503 594.89 500.5 596.18 498.81 599.89 493.81 605.62 485.01 602.23 482.19 599.24 479.69 568.75 493.24 545.92 503.97L575.77 553.66C588.44 545.27 598.76 537.61 603.04 534.62 609.25 530.11 614.09 523.81 616.59 516.47 616.67 516.15 616.83 515.91 616.99 515.67 618.69 513.57 627.32 502.28 626.67 494.61 626.51 492.36 623.69 491.39 622.07 493Z" fill="#e59763" opacity="1" stroke-width="4" stroke="#00000000"></path><path d="M476.95 566.49C463.48 545.19 454.77 504.78 454.77 504.78H453.88C448.4 506.15 445.82 509.7 444.28 519.46 442.59 532.69 438.4 556.08 428.07 566.41L476.95 566.49Z" fill="#e3e3e300" opacity="0" stroke="#00000000" stroke-width="4"></path><path d="M616.75 516.07C611.1 520.1 595.53 519.3 595.53 519.3" stroke="#000000" stroke-width="4" stroke-linecap="round" stroke-linejoin="round" opacity="1" fill="none"></path><path d="M608.76 529.62C601.42 532.2 591.74 532.2 591.74 532.2" stroke="#000000" stroke-width="4" stroke-linecap="round" stroke-linejoin="round" opacity="1" fill="none"></path><path d="M596.18 498.81L586.9 509.62" stroke="#000000" stroke-width="4" stroke-linecap="round" stroke-linejoin="round" opacity="1" fill="none"></path></g><g><path d="M1007.53 971.38L1059.1 955.18C1061.82 942.46 1065.21 924.65 1067.75 906.92L986.58 907.77C985.48 915.66 983.1 925.16 980.56 932.71L1007.53 971.38Z" fill="#faa378" opacity="1" stroke-width="4" stroke="#00000000"></path><path d="M986.58 907.76L1067.24 909.63C1067.41 908.18 1067.67 906.74 1067.84 905.38 1069.37 893.59 1070.55 878.92 1071.4 868.4H990.14C989.21 881.63 988.36 896.22 986.58 907.76Z" fill="#fed37b" opacity="1" stroke-width="4" stroke="#00000000"></path><path d="M1184.04 708.09H1145.28C1145.28 708.09 1052.32 714.11 1018.73 747.7 993.45 772.98 992.43 825.57 989.72 871.63H1071.32C1073.86 838.29 1072.93 813.95 1072.93 813.95L1134.17 812.59C1134.17 812.59 1171.91 811.32 1183.96 780.44 1196.09 749.65 1184.04 708.09 1184.04 708.09Z" fill="#ffbb30" opacity="1" stroke-width="4" stroke="#00000000"></path><path d="M1016.35 942.71C1017.12 937.46 1012.96 932.54 1007.62 932.71H980.73C980.56 932.71 980.47 932.79 980.39 932.96 973.26 955.52 948.66 962.39 934.33 979.27 932.63 980.88 930.77 985.12 929.75 988.18 929.75 988.26 929.75 988.26 929.83 988.26H1051.3C1051.3 988.26 1051.38 988.26 1051.38 988.18 1054.27 980.88 1056.05 967.99 1059.1 955.61 1059.19 955.35 1059.02 955.18 1058.76 955.18H1014.66C1014.57 955.18 1014.57 955.1 1014.57 955.1L1016.35 942.71Z" fill="#ffbb30" opacity="1" stroke-width="4" stroke="#00000000"></path><path d="M930.68 985.46C928.73 990.55 927.8 995.22 927.88 1001.58 927.88 1001.66 927.97 1001.75 928.05 1001.75H1046.12C1046.21 1001.75 1046.29 1001.75 1046.29 1001.66 1046.63 1000.82 1048.58 995.47 1051.55 985.63 1051.55 985.55 1051.47 985.38 1051.38 985.38H930.85C930.85 985.38 930.77 985.46 930.68 985.46Z" fill="#271d0a" opacity="1" stroke-width="4" stroke="#00000000"></path><path d="M1058.42 770.09C1012.79 770.09 1025.51 836.43 1028.14 909.54 1030.01 958.57 1002.36 951.78 981.66 979.26 980.22 981.21 979.03 983.17 978.01 985.29 975.98 990.46 975.13 996.06 975.81 1001.66H1037.64C1037.64 1001.66 1039.76 996.14 1042.99 985.29 1045.11 977.74 1047.82 967.73 1050.62 955.17 1053.33 942.45 1056.22 927.27 1058.76 909.54 1058.93 908.1 1059.19 906.66 1059.36 905.3 1060.88 893.51 1062.07 882.23 1062.92 871.71 1065.46 838.38 1064.53 814.03 1064.53 814.03 1064.53 814.03 1126.7 770.09 1058.42 770.09Z" fill="#ffbb3000" opacity="0" stroke="#00000000" stroke-width="4"></path><path d="M1082.34 964.34L1128.4 957.05C1130.35 943.48 1132.98 921.76 1134.08 905.39L1048.08 904.38C1048.41 912.69 1048.41 925.67 1047.99 932.71L1082.34 964.34Z" fill="#faa378" opacity="1" stroke-width="4" stroke="#00000000"></path><path d="M1083.28 955.17L1085.14 942.71C1085.82 937.96 1082.6 933.46 1077.76 932.78 1077.34 932.7 1076.91 932.7 1076.41 932.7H1048.67C1048.33 932.7 1047.99 932.95 1047.99 933.38 1047.82 936.51 1047.48 939.48 1047.06 942.28 1044.51 960.35 1019.91 965.1 1008.29 979.35 1007.02 980.96 1004.31 984.35 1003.63 986.56 1003.46 986.98 1003.8 987.49 1004.31 987.49H1122.8C1123.14 987.49 1123.4 987.24 1123.48 986.9 1125.01 979.26 1127.04 967.47 1128.66 956.02 1128.74 955.6 1128.4 955.26 1127.98 955.26L1083.28 955.17Z" fill="#ffbb30" opacity="1" stroke-width="4" stroke="#00000000"></path><path d="M1048.08 909.63H1133.83C1133.83 909.63 1134 907.26 1134.08 905.39 1134.93 893.09 1135.19 878.17 1135.27 868.07L1045.19 867.31C1046.29 880.37 1047.65 897.76 1048.08 909.63Z" fill="#fed37b" opacity="1" stroke-width="4" stroke="#00000000"></path><path d="M1258.09 708.09H1164.2C1164.2 708.09 1090.23 714.96 1057.49 747.7 1036.29 768.91 1041.37 822.43 1045.45 871.63H1135.27C1135.53 834.64 1132.22 813.18 1132.22 813.18H1208.13C1208.13 813.18 1245.96 811.32 1258.09 780.44 1270.14 749.65 1258.09 708.09 1258.09 708.09Z" fill="#ffbb30" opacity="1" stroke-width="4" stroke="#00000000"></path><path d="M1132.3 813.28C1134.42 813.28 1189.73 813.28 1172.34 813.28 1151.64 808.1 1142.65 786.98 1127.38 786.9 1127.3 786.9 1127.3 786.98 1127.3 786.98 1130.44 802.42 1132.05 812.34 1132.3 813.28 1132.22 813.28 1132.22 813.28 1132.3 813.28Z" fill="#ffbb3000" opacity="0" stroke="#00000000" stroke-width="4"></path><path d="M1258.09 708.09H1173.7C1173.7 708.09 1145.87 744.65 1158.68 743.29 1167.33 742.44 1182.26 725.31 1189.13 725.31 1210.25 723.36 1229.51 758.14 1262.84 758.3 1262.93 758.3 1263.01 758.22 1263.1 758.14 1265.22 732.69 1258.09 708.09 1258.09 708.09Z" fill="#ffbb3000" opacity="0" stroke="#00000000" stroke-width="4"></path><path d="M1004.14 985.38C1001.34 990.55 1000.91 996.32 1002.27 1001.75L1002.36 1001.83H1120.26L1120.34 1001.75C1120.51 1001.07 1121.95 995.13 1123.82 985.55 1123.82 985.46 1123.82 985.46 1123.74 985.46L1004.14 985.38C1004.14 985.29 1004.14 985.29 1004.14 985.38Z" fill="#271d0a" opacity="1" stroke-width="4" stroke="#00000000"></path><path d="M1053.76 660.59C1039.51 661.95 1025.51 663.22 1016.95 664.24 994.55 666.78 976.49 670.26 976.49 675.43 976.49 677.05 980.74 679.42 980.39 679.51 961.9 687.73 946.71 699.27 952.91 706.48 952.91 706.48 945.61 715.81 957.66 719.29 957.66 719.29 958.5 728.7 973.18 724.04 973.18 724.04 974.62 729.3 984.37 727.94 996.42 726.24 1025.85 714.11 1025.85 714.11H1053.25L1057.32 714.2 1065.55 684.93 1053.76 660.59Z" fill="#faa378" opacity="1" stroke-width="4" stroke="#00000000"></path><path d="M1237.74 556.18C1237.74 556.09 1237.74 556.09 1237.74 556.18 1237.06 556.01 1228.07 554.14 1223.74 553.29 1223.65 553.29 1223.65 553.21 1223.65 553.21 1223.82 552.53 1224.84 547.35 1225.27 544.73 1227.98 530.81 1229.08 514.02 1230.44 507.4 1232.56 495.87 1237.31 473.05 1224.33 461.43 1211.36 449.9 1190.32 447.01 1173.7 453.54 1158.09 459.65 1156.56 468.39 1150.03 487.39 1150.03 487.39 1150.03 487.47 1149.95 487.47 1149.35 487.56 1142.74 488.32 1142.14 491.12 1141.29 494.09 1145.37 499.35 1145.79 499.85V499.94C1140.7 515.89 1140.7 524.62 1146.13 532 1151.81 539.98 1166.15 540.74 1173.44 537.85 1173.53 537.94 1173.44 537.85 1173.53 537.94L1170.81 554.99C1170.81 554.99 1170.81 555.07 1170.73 555.07 1170.13 555.16 1165.38 555.58 1159.36 557.53 1159.28 557.53 1159.28 557.62 1159.36 557.7 1167.42 566.27 1178.53 579.16 1193.03 579.33 1205.84 579.42 1221.53 568.14 1237.74 556.18Z" fill="#faa378" opacity="1" stroke-width="4" stroke="#00000000"></path><path d="M1289.99 636.67C1287.27 605.03 1274.72 579.16 1260.89 567.03 1256.65 563.3 1245.62 557.62 1237.65 556.09 1237.65 556.09 1237.57 556.09 1237.48 556.09 1202.53 582.05 1174.37 573.65 1159.36 557.53 1146.21 561.86 1131.62 571.36 1121.11 597.91 1108.21 630.56 1100.41 656.43 1100.41 656.43 1100.41 656.43 1076.91 658.39 1053.76 660.59L1057.32 714.2H1100.58C1100.58 714.2 1125.52 709.96 1142.82 708.18 1153.93 707.07 1199.14 713.86 1200.07 714.03L1247.91 714.2C1266.83 714.2 1281.5 707.33 1287.53 691.81 1292.7 678.06 1290.49 644.81 1289.99 636.67Z" fill="#c7b287" opacity="1" stroke-width="4" stroke="#00000000"></path><path d="M1185.82 532.86L1172.93 546.68C1172.68 546.94 1172.17 546.77 1172.25 546.35L1173.53 538.03C1173.53 537.86 1173.61 537.78 1173.78 537.69 1178.45 535.91 1181.84 534.05 1185.4 532.18 1185.74 532.01 1186.08 532.52 1185.82 532.86Z" fill="#faa37800" opacity="0" stroke="#00000000" stroke-width="4"></path><path d="M1226.71 456.85C1213.73 445.31 1192.7 442.43 1176.07 448.96 1166.4 452.69 1161.23 459.23 1157.16 467.88V467.96C1157.58 468.56 1163.26 475.43 1182.94 469.83 1183.03 469.83 1183.03 469.83 1183.03 469.91 1178.19 488.06 1188.16 498.46 1188.2 498.16H1188.28C1188.35 498.26 1206.44 482.13 1215.68 492.22 1228.15 505.62 1206.98 523.86 1207.11 524.03V524.11C1210.04 537.75 1226.54 531.32 1227.56 531.24 1227.56 531.24 1227.64 531.24 1227.64 531.15 1229.76 519.62 1232.14 507.74 1232.99 502.99 1235.19 491.37 1239.69 468.56 1226.71 456.85Z" fill="#cf5934" opacity="1" stroke-width="4" stroke="#00000000"></path><path d="M1159.7 492.56C1161.06 492.56 1162.16 491.47 1162.16 490.1 1162.16 488.74 1161.06 487.64 1159.7 487.64 1158.33 487.64 1157.24 488.74 1157.24 490.1 1157.24 491.47 1158.33 492.56 1159.7 492.56Z" fill="#231f2000" opacity="1" stroke-width="4" stroke="#ffffff00"></path><path d="M1115 688.59C1102.36 706.15 1085.23 706.4 1081.07 714.04 1081.07 714.12 1081.07 714.21 1081.16 714.21H1100.49C1100.75 714.21 1125.52 709.97 1142.74 708.18 1142.74 708.18 1142.74 708.18 1142.82 708.18L1149.1 700.72C1149.1 700.72 1149.1 700.72 1149.1 700.63L1145.11 639.22C1145.11 639.14 1145.03 639.14 1145.03 639.14 1133.74 639.31 1129.67 668.32 1115 688.59Z" fill="#c7b28700" opacity="0" stroke="#00000000" stroke-width="4"></path><path d="M1154.78 671.11C1135.78 677.98 1118.99 689.51 1115.17 694.35 1109.74 701.31 1120.51 703.43 1122.55 703.68 1122.72 703.68 1122.8 703.85 1122.72 704.02 1117.63 710.97 1112.28 722.76 1110.84 727.01 1106.52 739.98 1112.88 740.07 1114.15 739.9 1114.24 739.9 1114.41 739.98 1114.41 740.07 1115.25 752.79 1124.41 747.45 1125.52 746.77 1125.6 746.77 1125.69 746.77 1125.69 746.77 1138.58 754.32 1152.32 724.38 1152.32 724.38 1150.62 727.85 1148.25 740.75 1154.87 740.75 1161.74 740.75 1169.11 714.03 1180.65 714.03H1199.82C1199.91 714.03 1200.07 713.94 1199.99 713.77L1196.09 661.18C1196.09 661.1 1196 661.02 1195.83 661.02 1182.94 662.71 1163.94 667.72 1154.78 671.11Z" fill="#faa378" opacity="1" stroke-width="4" stroke="#00000000"></path><path d="M1207.54 659.91C1220.26 658.89 1220.09 657.88 1230.44 657.28 1230.53 657.28 1230.53 657.2 1230.53 657.2L1226.79 623.02C1226.79 622.93 1226.71 622.93 1226.71 622.93 1213.56 623.86 1219.33 648.46 1207.45 659.74 1207.37 659.83 1207.45 659.91 1207.54 659.91Z" fill="#c7b28700" opacity="0" stroke="#00000000" stroke-width="4"></path><path d="M1091.59 726.08C1078.7 731.59 1066.48 738.63 1057.49 747.71 1036.29 768.92 1041.37 822.44 1045.45 871.63 1046.55 884.87 1047.57 897.59 1048.08 909.46 1048.41 917.78 1048.41 925.58 1047.99 932.62 1047.82 936.01 1047.48 939.15 1047.06 942.21 1044.51 960.27 1019.91 965.02 1008.29 979.27 1006.85 981.14 1005.16 983.17 1004.14 985.29" stroke="#000000" stroke-width="4" stroke-linecap="round" stroke-linejoin="round" opacity="1" fill="none"></path><path d="M1158.68 507.41C1157.24 510.38 1152.91 510.81 1150.79 509.96" stroke="#00000000" stroke-width="4" stroke-linecap="round" stroke-linejoin="round" opacity="1" fill="#ffffff00"></path><path d="M1185.4 532.17C1185.4 532.17 1177.17 536.24 1173.61 537.77" stroke="#00000000" stroke-width="4" stroke-linecap="round" stroke-linejoin="round" opacity="1" fill="none"></path><path d="M1145.11 639.14L1147.32 672.47" stroke="#000000" stroke-width="4" stroke-linecap="round" stroke-linejoin="round" opacity="1" fill="none"></path><path d="M1114.32 739.99C1123.74 718.45 1138.41 700.38 1138.41 700.38" stroke="#000000" stroke-width="4" stroke-linecap="round" stroke-linejoin="round" opacity="1" fill="none"></path><path d="M1125.52 746.85C1135.87 726.16 1149.61 707.24 1149.61 707.24" stroke="#000000" stroke-width="4" stroke-linecap="round" stroke-linejoin="round" opacity="1" fill="none"></path><path d="M1152.32 724.38L1157.92 714.21" stroke="#000000" stroke-width="4" stroke-linecap="round" stroke-linejoin="round" opacity="1" fill="none"></path><path d="M1132.22 813.19C1130.69 806.32 1127.38 787.32 1127.38 787.32" stroke="#000000" stroke-width="4" stroke-linecap="round" stroke-linejoin="round" opacity="1" fill="none"></path><path d="M952.91 706.48L989.72 687.39" stroke="#000000" stroke-width="4" stroke-linecap="round" stroke-linejoin="round" opacity="1" fill="none"></path><path d="M957.57 719.29L1004.14 696.89" stroke="#000000" stroke-width="4" stroke-linecap="round" stroke-linejoin="round" opacity="1" fill="none"></path><path d="M973.18 724.04L1005.83 710.72" stroke="#000000" stroke-width="4" stroke-linecap="round" stroke-linejoin="round" opacity="1" fill="none"></path><path d="M1196.09 661.18C1205.5 659.83 1230.53 657.28 1230.53 657.28L1226.71 622.93" stroke="#000000" stroke-width="4" stroke-linecap="round" stroke-linejoin="round" opacity="1" fill="none"></path></g><g><path d="M322.58 869.98H304.04V913.9H322.58V869.98Z" fill="#767676" opacity="1" stroke-width="4" stroke="#00000000"></path><path d="M305.28 853.98H291.07V913.9H305.28V853.98Z" fill="#ffe0a0" opacity="1" stroke-width="4" stroke="#00000000"></path><path d="M292.3 853.98H271.92V913.9H292.3V853.98Z" fill="#1f1f1f" opacity="1" stroke-width="4" stroke="#00000000"></path><path d="M376.32 869.98H367.05V913.9H376.32V869.98Z" fill="#ffbb30" opacity="1" stroke-width="4" stroke="#00000000"></path><path d="M367.67 869.98H352.23V913.9H367.67V869.98Z" fill="#1f1f1f" opacity="1" stroke-width="4" stroke="#00000000"></path><path d="M338.64 864.67H321.34V913.9H338.64V864.67Z" fill="#ffbb30" opacity="1" stroke-width="4" stroke="#00000000"></path><path d="M353.46 853.98H337.4V913.9H353.46V853.98Z" fill="#ffe0a0" opacity="1" stroke-width="4" stroke="#00000000"></path><path d="M391.77 864.67H375.09V913.9H391.77V864.67Z" fill="#767676" opacity="1" stroke-width="4" stroke="#00000000"></path><path d="M412.77 853.98H391.15V913.9H412.77V853.98Z" fill="#ffe0a0" opacity="1" stroke-width="4" stroke="#00000000"></path><path d="M411.53 745.87H257.71V1002.86H273.15V929.35H411.53V1002.86H426.98V745.87H411.53ZM273.15 913.9V839.15H411.53V913.9H273.15Z" fill="#ffbb30" opacity="1" stroke-width="4" stroke="#00000000"></path><path d="M411.53 761.31H273.15V823.71H411.53V761.31Z" fill="#b37800" opacity="1" stroke-width="4" stroke="#00000000"></path><path d="M411.53 764.4L273.15 779.85V761.31H411.53V764.4Z" fill="#ffbb3000" opacity="0" stroke="#00000000" stroke-width="4"></path><path d="M273.15 913.9V929.35" stroke="#00000000" stroke-width="4" stroke-linecap="round" stroke-linejoin="round" opacity="1" fill="none"></path><path d="M411.53 913.9V929.35" stroke="#00000000" stroke-width="4" stroke-linecap="round" stroke-linejoin="round" opacity="1" fill="none"></path><path d="M342.65 799.62C345.55 799.62 347.9 797.26 347.9 794.36 347.9 791.47 345.55 789.11 342.65 789.11 339.76 789.11 337.4 791.47 337.4 794.36 337.4 797.26 339.76 799.62 342.65 799.62Z" fill="#000000" opacity="1" stroke-width="4" stroke="#00000000"></path></g><g><path d="M658.71 292.03C653.11 293.59 648.41 297.38 645.67 302.59L640.07 313.28 634.46 302.59C631.72 297.38 627.03 293.59 621.42 292.03 602.51 286.68 587.13 307.68 597.82 324.11L640.07 388.65 682.31 324.11C693 307.68 677.62 286.68 658.71 292.03Z" fill="#ffe0a0" opacity="1" stroke-width="4" stroke="#00000000"></path></g><g><path d="M1225.19 268.74C1220.88 264.54 1217.44 259.53 1215.06 254 1212.69 248.47 1211.43 242.53 1211.36 236.5 1211.29 230.49 1212.41 224.51 1214.65 218.93 1216.89 213.34 1220.22 208.26 1224.43 203.96 1228.64 199.67 1233.66 196.24 1239.2 193.89 1244.74 191.53 1250.69 190.3 1256.71 190.24 1262.73 190.2 1268.7 191.34 1274.28 193.6 1279.85 195.87 1284.93 199.21 1289.21 203.44 1289.43 203.65 1289.64 203.86 1289.85 204.08L1298.64 212.87 1307.23 204.08C1311.46 199.76 1316.5 196.32 1322.07 193.97 1327.63 191.61 1333.61 190.37 1339.66 190.34 1345.7 190.31 1351.69 191.48 1357.28 193.78 1362.88 196.07 1367.96 199.47 1372.23 203.74 1376.5 208.01 1379.88 213.09 1382.19 218.68 1384.49 224.27 1385.65 230.27 1385.61 236.31 1385.58 242.36 1384.36 248.33 1382 253.9 1379.64 259.46 1376.2 264.51 1371.88 268.74L1299.03 341.59 1225.19 268.74Z" fill="#e3e3e3" opacity="1" stroke-width="4" stroke="#00000000"></path></g><g><path d="M1452.68 443.82C1443.78 449.96 1425.43 457.18 1410.46 442.93 1395.68 428.76 1393.99 418.61 1373.95 410.68 1356.58 403.74 1334.76 416.21 1334.76 416.21L1346.34 463.68C1346.34 463.68 1362.28 455.84 1374.75 461.1 1396.84 470.45 1399.24 494.41 1425.61 499.93 1445.65 504.12 1463.55 491.91 1463.55 491.91L1452.68 443.82Z" fill="#ffbb30" opacity="1" stroke-width="4" stroke="#00000000"></path></g><g><path d="M1155.16 403.62C1168.39 403.62 1179.13 392.88 1179.13 379.64 1179.13 366.41 1168.39 355.67 1155.16 355.67 1141.93 355.67 1131.18 366.41 1131.18 379.64 1131.18 392.88 1141.93 403.62 1155.16 403.62Z" fill="#767676" opacity="1" stroke-width="4" stroke="#00000000"></path></g><g><path d="M242.68 750.1H327.41C358.57 750.1 383.9 724.76 383.9 693.61 383.9 665.87 363.76 642.31 336.4 637.88V608.87L294.98 637.12H242.68C211.52 637.12 186.19 662.45 186.19 693.61 186.19 724.89 211.52 750.1 242.68 750.1Z" fill="#c7b287" opacity="1" stroke-width="4" stroke="#00000000"></path><path d="M316.77 686.77C312.5 686.77 309.04 690.23 309.04 694.49 309.04 698.76 312.5 702.22 316.77 702.22 321.04 702.22 324.5 698.76 324.5 694.49 324.5 690.23 321.04 686.77 316.77 686.77Z" fill="#ffffff" opacity="1" stroke-width="4" stroke="#00000000"></path><path d="M285.11 686.77C280.84 686.77 277.38 690.23 277.38 694.49 277.38 698.76 280.84 702.22 285.11 702.22 289.37 702.22 292.83 698.76 292.83 694.49 292.83 690.23 289.37 686.77 285.11 686.77Z" fill="#ffffff" opacity="1" stroke-width="4" stroke="#00000000"></path><path d="M253.31 686.77C249.05 686.77 245.59 690.23 245.59 694.49 245.59 698.76 249.05 702.22 253.31 702.22 257.58 702.22 261.04 698.76 261.04 694.49 261.04 690.23 257.58 686.77 253.31 686.77Z" fill="#ffffff" opacity="1" stroke-width="4" stroke="#00000000"></path></g><g><path d="M958.51 351L998.41 326.11H1104.51C1118.58 326.1 1132.08 320.5 1142.03 310.55 1151.99 300.6 1157.58 287.1 1157.59 273.03 1157.58 258.95 1151.99 245.45 1142.03 235.5 1132.08 225.55 1118.58 219.95 1104.51 219.94H1011.6C997.52 219.95 984.03 225.55 974.07 235.5 964.12 245.45 958.53 258.95 958.51 273.03V351Z" fill="#c7b287" opacity="1" stroke-width="4" stroke="#00000000"></path><path d="M1017.99 282.81C1023.4 282.81 1027.78 278.43 1027.78 273.03 1027.78 267.62 1023.4 263.24 1017.99 263.24 1012.58 263.24 1008.2 267.62 1008.2 273.03 1008.2 278.43 1012.58 282.81 1017.99 282.81Z" fill="#f3f3f3" opacity="1" stroke-width="4" stroke="#00000000"></path><path d="M1057.97 282.81C1063.38 282.81 1067.76 278.43 1067.76 273.03 1067.76 267.62 1063.38 263.24 1057.97 263.24 1052.56 263.24 1048.18 267.62 1048.18 273.03 1048.18 278.43 1052.56 282.81 1057.97 282.81Z" fill="#f3f3f3" opacity="1" stroke-width="4" stroke="#00000000"></path><path d="M1098.12 282.81C1103.53 282.81 1107.91 278.43 1107.91 273.03 1107.91 267.62 1103.53 263.24 1098.12 263.24 1092.71 263.24 1088.33 267.62 1088.33 273.03 1088.33 278.43 1092.71 282.81 1098.12 282.81Z" fill="#f3f3f3" opacity="1" stroke-width="4" stroke="#00000000"></path></g></svg>