<svg xmlns="http://www.w3.org/2000/svg" height="1200" width="1600" version="1.1" xmlns:xlink="http://www.w3.org/1999/xlink" xmlns:svgjs="http://svgjs.com/svgjs"><rect fill="#0000" width="1600" height="1200"></rect><g><path d="M1005.65 301.05H1384.95C1402.25 301.05 1416.25 315.05 1416.25 332.35V892.75C1416.25 910.05 1402.25 924.05 1384.95 924.05H1005.65C988.35 924.05 974.35 910.05 974.35 892.75V332.35C974.35 315.05 988.35 301.05 1005.65 301.05Z" fill="#c7b287" opacity="1" stroke-width="4" stroke="#00000000"></path><path d="M1151.15 301.05V924.05" stroke="#00000000" stroke-width="4" stroke-linecap="round" stroke-linejoin="round" opacity="1" fill="none"></path><path d="M1062.75 301.05V924.05" stroke="#00000000" stroke-width="4" stroke-linecap="round" stroke-linejoin="round" opacity="1" fill="none"></path><path d="M1239.45 301.05V924.05" stroke="#00000000" stroke-width="4" stroke-linecap="round" stroke-linejoin="round" opacity="1" fill="none"></path><path d="M1327.85 301.05V924.05" stroke="#00000000" stroke-width="4" stroke-linecap="round" stroke-linejoin="round" opacity="1" fill="none"></path><path d="M974.35 746.25H1416.25" stroke="#00000000" stroke-width="4" stroke-linecap="round" stroke-linejoin="round" opacity="1" fill="none"></path><path d="M974.35 835.25L1416.25 835.65" stroke="#00000000" stroke-width="4" stroke-linecap="round" stroke-linejoin="round" opacity="1" fill="none"></path><path d="M974.35 567.95L1416.25 568.15" stroke="#00000000" stroke-width="4" stroke-linecap="round" stroke-linejoin="round" opacity="1" fill="none"></path><path d="M974.65 657.25H1416.25" stroke="#00000000" stroke-width="4" stroke-linecap="round" stroke-linejoin="round" opacity="1" fill="none"></path><path d="M974.35 479.05L1416.25 479.15" stroke="#00000000" stroke-width="4" stroke-linecap="round" stroke-linejoin="round" opacity="1" fill="none"></path><path d="M974.35 390.05H1416.25" stroke="#00000000" stroke-width="4" stroke-linecap="round" stroke-linejoin="round" opacity="1" fill="none"></path></g><g><path d="M957.13 195.66H1279.43C1296.73 195.66 1310.73 209.66 1310.73 226.96V787.36C1310.73 804.66 1296.73 818.66 1279.43 818.66H957.13C939.83 818.66 925.83 804.66 925.83 787.36V226.96C925.83 209.66 939.93 195.66 957.13 195.66Z" fill="#ffbc32" opacity="1" stroke-width="4" stroke="#00000000"></path><path d="M1123.43 184.26L1147.33 145.66H1213.53C1230.83 145.66 1244.83 159.66 1244.83 176.96V282.66L1217.43 317.66 1123.53 291.06 1123.43 184.26Z" fill="#1f1f1f" opacity="1" stroke-width="4" stroke="#00000000"></path><path d="M1154.43 174.36V262.86L1102.73 634.26 920.93 602.66 888.13 400.66 879.33 195.66 974.93 171.96 1154.43 174.36Z" fill="#a0a0a0" opacity="1" stroke-width="4" stroke="#00000000"></path><path d="M879.33 463.06L859.93 507.16V737.36C859.93 754.66 873.93 768.66 891.23 768.66H920.93L988.73 743.66 981.93 424.66 879.33 463.06Z" fill="#ffbc32" opacity="1" stroke-width="4" stroke="#00000000"></path><path d="M891.23 145.66C873.93 145.66 859.93 159.66 859.93 176.96V507.16C886.93 470.66 960.93 496.66 979.93 435.66 1001.23 367.26 849.73 300.26 897.93 233.66 939.93 175.66 1045.93 234.66 1111.93 217.66 1177.93 200.66 1147.33 145.66 1147.33 145.66H891.23Z" fill="#ffffff" opacity="1" stroke-width="4" stroke="#00000000"></path><path d="M954.13 611.16V760.46H1039.93L972.03 615.66 954.13 611.16Z" fill="#feeecd" opacity="1" stroke-width="4" stroke="#00000000"></path><path d="M1024.93 311.66V602.66H1187.63V423.66L1024.93 311.66Z" fill="#feeecd" opacity="1" stroke-width="4" stroke="#00000000"></path><path d="M920.93 768.66H1213.63C1230.93 768.66 1244.93 754.66 1244.93 737.36L1244.83 282.76C1244.83 282.76 1062.93 227.66 1031.93 284.66 984.63 371.66 1189.53 470.36 1155.93 542.66 1129.93 598.66 985.83 541.06 958.93 592.66 934.93 638.66 1009.73 689.86 1002.93 721.66 996.93 749.66 930.93 737.66 920.93 768.66Z" fill="#ffffff" opacity="1" stroke-width="4" stroke="#00000000"></path><path d="M1093.93 448.66C1107.18 448.66 1117.93 437.91 1117.93 424.66 1117.93 411.41 1107.18 400.66 1093.93 400.66 1080.68 400.66 1069.93 411.41 1069.93 424.66 1069.93 437.91 1080.68 448.66 1093.93 448.66Z" fill="#1f1f1f" opacity="1" stroke-width="4" stroke="#00000000"></path></g><g><path d="M482 968H625.4L649.4 940.8H884.2L795 968 858.4 1020.3 795.5 1067H482V968Z" fill="#cecece" opacity="1" stroke-width="4" stroke="#00000000"></path><path d="M794.9 950.6L908.2 954.7V1067H795.5L794.9 950.6Z" fill="#1f1f1f" opacity="1" stroke-width="4" stroke="#00000000"></path><path d="M625.4 869H768.8L798.3 835.2 1015.4 832.7 938.9 869 995.3 927.2 938.9 968H625.4V869Z" fill="#cecece" opacity="1" stroke-width="4" stroke="#00000000"></path><path d="M938.9 855.9L1051.7 853.9 1051.6 968H938.9V855.9Z" fill="#1f1f1f" opacity="1" stroke-width="4" stroke="#00000000"></path><path d="M768.8 770H1082.3L1161.7 818 1082.3 869H1035.6 1022 783.2 768.8V770Z" fill="#cecece" opacity="1" stroke-width="4" stroke="#00000000"></path><path d="M1195 770H1082.3V869H1195V770Z" fill="#1f1f1f" opacity="1" stroke-width="4" stroke="#00000000"></path><path d="M908 968H625.4" stroke="#000000" stroke-width="4" stroke-linecap="round" stroke-linejoin="round" opacity="1" fill="none"></path><path d="M1052 869H768.4" stroke="#000000" stroke-width="4" stroke-linecap="round" stroke-linejoin="round" opacity="1" fill="none"></path><path d="M1195 770H860" stroke="#000000" stroke-width="4" stroke-linecap="round" stroke-linejoin="round" opacity="1" fill="none"></path></g><g><path d="M1462.4 878.4L1453 887.8C1437.6 903.2 1416.5 896.1 1401.1 891 1388.9 886.9 1380 884.3 1376.5 887.8 1373 891.3 1375.6 900.2 1379.7 912.4 1384.8 927.8 1391.9 948.9 1376.5 964.3 1361.1 979.7 1340 972.6 1324.6 967.5 1312.4 963.4 1303.5 960.8 1300 964.3 1296.5 967.8 1299.1 976.7 1303.2 988.9 1308.3 1004.3 1315.4 1025.4 1300 1040.8 1284.6 1056.2 1263.5 1049.1 1248.1 1044 1235.9 1039.9 1227 1037.3 1223.5 1040.8L1214.1 1050.2 1195.3 1031.4 1204.7 1022C1220.1 1006.6 1241.2 1013.7 1256.6 1018.8 1268.8 1022.9 1277.7 1025.5 1281.2 1022 1284.7 1018.5 1282.1 1009.6 1278 997.4 1272.9 982 1265.8 960.9 1281.2 945.5 1296.6 930.1 1317.7 937.2 1333.1 942.3 1345.3 946.4 1354.2 949 1357.7 945.5 1361.2 942 1358.6 933.1 1354.5 920.9 1349.4 905.5 1342.3 884.4 1357.7 869 1373.1 853.6 1394.2 860.7 1409.6 865.8 1421.8 869.9 1430.7 872.5 1434.2 869L1443.6 859.6 1462.4 878.4Z" fill="#ffffff" opacity="1" stroke-width="4" stroke="#00000000"></path></g><g><path d="M357.42 194.12C380.81 194.12 399.79 175.14 399.79 151.75 399.79 128.36 380.81 109.37 357.42 109.37 334.03 109.37 315.04 128.36 315.04 151.75 315.04 175.14 334.03 194.12 357.42 194.12Z" fill="#a0a0a0" opacity="1" stroke-width="4" stroke="#00000000"></path></g><g><path d="M211.17 278.91H474.26C508.28 278.91 513.77 299.19 513.77 333.36L536.03 566.86V603.77C536.03 637.78 508.43 665.54 474.26 665.54H211.17C177.16 665.54 149.4 637.94 149.4 603.77V566.86L187.23 341.75C187.23 307.58 177.01 278.91 211.17 278.91Z" fill="#1f1f1f" opacity="1" stroke-width="4" stroke="#00000000"></path><path d="M211.17 242H474.26C508.28 242 536.03 269.61 536.03 303.77V566.86C536.03 600.87 508.43 628.63 474.26 628.63H211.17C177.16 628.63 149.4 601.03 149.4 566.86V303.62C149.4 269.61 177.01 242 211.17 242Z" fill="#c7b287" opacity="1" stroke-width="4" stroke="#00000000"></path></g><g><path d="M343.47 435.05V567.69C343.47 567.83 343.47 567.83 343.33 567.83 269.99 567.69 210.69 508.39 210.69 435.05 210.69 361.71 270.13 302.27 343.47 302.27V435.05Z" fill="#ffbc32" opacity="1" stroke-width="4" stroke="#00000000"></path><path d="M343.61 435.05L469.65 394.16C469.79 394.16 469.79 394.16 469.79 394.3 492.27 463.99 454.19 538.74 384.64 561.5 371.43 565.86 357.66 568.11 343.75 567.97 343.61 567.97 343.61 567.97 343.61 567.83V435.05C343.47 435.05 343.47 435.05 343.61 435.05Z" fill="#ffffff" opacity="1" stroke-width="4" stroke="#00000000"></path><path d="M344.17 434.49L450.82 357.07H450.96C459.25 368.31 465.43 380.67 469.65 393.74 469.65 393.88 469.65 393.88 469.5 393.88L344.17 434.49C344.03 434.63 344.17 434.77 344.17 434.49Z" fill="#1f1f1f" opacity="1" stroke-width="4" stroke="#00000000"></path><path d="M343.47 434.77V302.41C343.47 302.27 343.47 302.27 343.61 302.27 387.45 302.27 424.96 321.38 450.82 356.93V357.07L343.47 434.77C343.47 434.91 343.61 434.91 343.47 434.77Z" fill="#1f1f1f" opacity="1" stroke-width="4" stroke="#00000000"></path><path d="M343.61 509.52C384.74 509.52 418.08 476.18 418.08 435.05 418.08 393.92 384.74 360.58 343.61 360.58 302.49 360.58 269.14 393.92 269.14 435.05 269.14 476.18 302.49 509.52 343.61 509.52Z" fill="#feeecd" opacity="1" stroke-width="4" stroke="#00000000"></path><path d="M343.47 435.05C335.04 435.05 328.3 428.16 328.3 419.73 328.3 411.3 335.18 404.56 343.61 404.56 352.04 404.56 358.79 411.44 358.79 419.73" stroke="#000000" stroke-width="4" stroke-linecap="round" stroke-linejoin="round" opacity="1" fill="none"></path><path d="M343.47 435.05C351.9 435.05 358.79 441.79 358.79 450.22 358.79 458.65 352.04 465.54 343.61 465.54 335.18 465.54 328.3 458.79 328.3 450.36" stroke="#000000" stroke-width="4" stroke-linecap="round" stroke-linejoin="round" opacity="1" fill="none"></path><path d="M343.47 404.56V396.69" stroke="#000000" stroke-width="4" stroke-linecap="round" stroke-linejoin="round" opacity="1" fill="none"></path><path d="M343.33 473.41V465.54" stroke="#000000" stroke-width="4" stroke-linecap="round" stroke-linejoin="round" opacity="1" fill="none"></path></g><g><path d="M409.34 428.44H653.37C673.4 428.44 689.69 444.72 689.69 464.76V708.79C689.69 728.82 673.4 745.11 653.37 745.11H409.34C389.3 745.11 373.02 728.82 373.02 708.79V464.76C373.02 444.72 389.3 428.44 409.34 428.44Z" fill="#1f1f1f" opacity="1" stroke-width="4" stroke="#00000000"></path></g><g><path d="M534.2 664.7C491.71 664.7 457.14 630.14 457.14 587.64 457.14 545.14 491.71 510.58 534.2 510.58 576.7 510.58 611.26 545.14 611.26 587.64 611.26 630.14 576.7 664.7 534.2 664.7Z" fill="#ffffff" stroke="#00000000" stroke-width="4" opacity="1"></path><path d="M508.24 586.49L529.9 608.15 560.16 567.27" stroke="#000000" stroke-width="4" stroke-linecap="round" stroke-linejoin="round" opacity="1" fill="none"></path></g><g><path d="M607.39 871.14C616.77 845.82 639.79 813.73 660.21 785.18 663.44 780.6 666.78 776.12 669.9 771.64L670.11 771.43 575.61 748.61 571.34 750.7C567.17 756.53 563.94 761.53 560.61 766.85 551.54 781.43 543.41 796.54 536.43 812.27 533 820.09 529.77 827.8 526.64 836.03L534.04 893.75 607.39 871.14Z" fill="#c65a42" opacity="1" stroke-width="4" stroke="#00000000"></path><path d="M647.19 803.42C651.57 797.27 655.94 791.12 660.21 785.08 663.44 780.5 664.9 778.52 668.13 774.04L670.01 771.33 585.51 746.74 585.3 747.16C603.01 756.74 618.95 769.35 632.39 784.25 642.19 795.19 646.67 803.31 646.77 803.42L646.98 803.73 647.19 803.42Z" fill="#c65a4200" opacity="0" stroke="#00000000" stroke-width="4"></path><path d="M790.76 321.85C793.99 322.89 797.43 323.41 800.87 323.31 810.25 323.31 818.17 320.08 822.02 314.66 828.38 306.01 828.48 295.9 822.65 277.57 823.27 276.73 827.75 271 826.92 267.36 826.4 265.27 823.27 263.71 817.75 262.98L817.23 261.21C814.31 252.46 811.6 244.75 808.37 238.39 803.79 229.43 790.45 231.72 780.03 227.76 773.16 225.05 773.57 224.74 766.28 224.85 752.21 224.85 746.69 222.24 737.42 230.58 722.62 243.91 724.71 266.21 727.31 279.86L729.71 281.63C730.96 289.65 728.56 315.7 731.79 331.75V331.95L789.83 335.18 791.91 328.93 790.76 321.85Z" fill="#c65a42" opacity="1" stroke-width="4" stroke="#00000000"></path><path d="M790.76 321.85L782.74 318.62C782.43 318.51 782.22 318.41 781.91 318.41 781.28 318.41 780.66 318.72 780.35 319.24 780.03 319.76 779.93 320.39 780.24 321.01L785.55 333.1 791.91 328.93 790.76 321.85Z" fill="#c65a4200" opacity="0" stroke="#00000000" stroke-width="4"></path><path d="M797.43 876.87C797.75 868.85 798.68 862.18 799.1 859.26 801.08 845.3 803.48 828.22 806.6 807.27L786.6 636.4 717.52 778.72C715.75 786.64 713.04 800.4 712 807.59 709.39 824.57 708.04 841.66 707.83 858.85 707.83 864.68 707.72 870.62 707.93 876.66L741.69 936.47 797.43 876.87Z" fill="#c65a42" opacity="1" stroke-width="4" stroke="#00000000"></path><path d="M793.89 751.32L787.12 646.51C786.91 643.8 783.26 643.07 782.12 645.46L717.62 778.52C717.52 778.72 717.41 778.93 717.41 779.14 717 781.02 716.58 783.21 716.16 785.6 715.33 789.56 714.5 794.04 713.77 798 713.56 798.94 713.98 799.88 714.7 800.5L735.65 817.69C736.79 818.63 738.46 818.42 739.4 817.38L793.47 753.3C793.79 752.68 793.99 751.95 793.89 751.32Z" fill="#c65a4200" opacity="0" stroke="#00000000" stroke-width="4"></path><path d="M842.44 952.62L842.96 951.58C840.98 948.76 838.8 946.37 836.19 944.28 834.84 943.24 833.27 941.89 831.4 940.43 824.31 934.8 814.62 927.09 808.06 920.22 800.25 911.88 796.6 896.87 797.43 876.86V876.65H778.05C770.24 876.65 763.05 880.93 759.3 887.7L742.94 917.61C742.84 917.72 742.73 917.72 742.73 917.61L738.46 894.26C736.58 884.16 727.73 876.76 717.41 876.76H708.04V876.97C708.77 902.18 711.37 926.99 716.16 951.68 716.16 951.68 716.16 951.68 716.16 951.79L716.89 952.62H717 842.44Z" fill="#ffffff" opacity="1" stroke-width="4" stroke="#00000000"></path><path d="M958.82 402.07C963.3 393.11 965.6 386.86 966.01 385.92 967.26 385.61 978.2 382.9 987.69 369.05 988.21 370.09 990.19 373.21 993.73 373.21 996.23 373.21 998.94 371.75 1001.96 368.73 1009.15 361.54 1010.09 356.44 1009.57 353.42 1009.25 351.23 1008 349.46 1006.13 348.42 1007.48 345.08 1007.59 342.16 1006.44 339.66 1005.61 337.79 1004.04 336.23 1002.06 335.29 1005.5 328.2 1000.4 323.41 999.15 322.37 1001.02 321.43 1002.69 320.49 1004.36 319.56 1014.46 314.24 1021.03 310.8 1021.03 306.22 1021.03 304.13 1019.67 301.63 1013.21 301.63 1006.23 301.63 994.98 304.76 983.1 309.97 970.6 315.39 958.82 322.58 948.3 331.22 939.03 339.14 927.67 350.19 913.92 364.57L914.02 366.65 956.53 402.8 958.82 402.07Z" fill="#c65a42" opacity="1" stroke-width="4" stroke="#00000000"></path><path d="M690.53 532.42C702.1 515.12 714.6 506.16 715.54 505.43L812.96 504.7 813.27 503.87 824.94 449.27C828.06 451.67 857.34 474.28 880.99 474.28 881.72 474.28 882.45 474.28 883.18 474.17 898.6 473.24 928.92 462.71 958.72 402.18L958.82 402.07 913.92 364.57 913.81 364.67C897.66 381.65 883.91 397.39 882.24 399.26 843.48 348.42 811.81 340.81 796.39 340.81 795.97 340.81 795.56 340.81 795.24 340.81H794.62C794.52 340.81 794.41 340.81 794.31 340.81L791.91 328.93H730.13C730.13 328.93 731.48 335.7 731.79 337.16 729.5 337.48 710.33 340.81 697.1 355.4 691.26 361.65 670.94 369.88 662.92 390.51 658.02 402.8 665.42 423.75 662.19 435.21 659.59 444.48 657.61 453.23 656.46 460.84 651.36 493.35 669.69 521.37 690.32 532.31L690.53 532.42Z" fill="#feeecd" opacity="1" stroke-width="4" stroke="#00000000"></path><path d="M715.54 505.43L715.43 503.87 705.12 444.69C696.68 447.71 695.12 458.34 693.45 469.69 692.1 478.55 690.74 487.62 686.26 494.8 678.03 508.04 668.34 512.2 668.34 512.2 674.38 520.85 682.09 527.94 690.22 532.21 690.22 532.21 715.33 505.54 715.54 505.43Z" fill="#feeecd00" opacity="0" stroke="#00000000" stroke-width="4"></path><path d="M659.28 435.42C660.84 435.42 662.09 435.21 662.09 435.21 662.09 435.21 664.38 427.81 665.01 426.04 671.26 408.95 673.24 401.97 684.18 378.01 692.3 381.97 704.29 383.84 713.35 383.74 725.54 383.63 737.63 381.34 747.84 374.78 756.49 369.36 767.43 358.21 770.24 335.29 771.28 326.85 771.07 318.3 769.82 309.97L769.72 309.87C769.72 309.87 741.79 297.26 747.94 278.82 749.5 274.02 753.67 271.52 760.13 271.52 769.61 271.52 781.18 276.84 781.18 276.84 781.28 276.73 792.85 262.88 784.2 248.81 783.99 248.5 784.3 248.08 784.62 248.18 787.33 248.81 789.93 249.23 792.74 249.23 805.98 249.23 808.37 238.49 808.37 238.49V238.39C803.37 228.6 797.12 222.76 787.64 219.22 780.76 216.51 773.47 215.16 766.18 215.26 752.11 215.26 738.67 219.95 729.29 228.28 715.23 241 717.93 264.54 721.06 280.9L721.16 281.21C715.96 280.48 710.75 280.07 705.54 280.07 687.41 280.07 655.11 284.65 642.29 315.18 635.73 331.02 633.85 354.56 648.44 373.53 645.94 374.36 627.5 381.03 624.58 395.51 622.5 404.78 624.89 414.47 630.94 421.77 637.81 429.89 649.17 435.42 659.28 435.42Z" fill="#231f20" opacity="1" stroke-width="4" stroke="#00000000"></path><path d="M806.6 807.27C807.96 798.1 809.31 789.04 810.66 780.29 813.58 760.49 816.29 742.15 817.65 732.36 831.82 629.52 819.31 527.62 813.27 504.08V503.87L715.43 503.87H715.33C679.07 534.71 666.36 572.11 647.81 624.63 638.65 650.47 630.21 666.62 614.68 692.98 607.91 704.44 599.99 714.02 592.28 723.3 588.11 728.3 584.26 732.99 580.72 737.78 577.17 742.47 574.05 746.63 571.23 750.7L738.56 791.02C738.67 791.02 738.67 791.02 738.67 790.92L780.55 670.26C780.55 670.16 780.76 670.16 780.76 670.26L780.24 800.92C780.24 801.02 780.24 801.02 780.35 801.02L806.6 807.27Z" fill="#c7b287" opacity="1" stroke-width="4" stroke="#00000000"></path><path d="M780.97 670.26L793.79 503.87" stroke="#00000000" stroke-width="4" stroke-linecap="round" stroke-linejoin="round" opacity="1" fill="none"></path><path d="M848.38 968.98V968.77C848.49 962.62 846.61 956.68 843.07 951.68L842.96 951.58H716.06V951.79C717.1 957.52 718.56 963.25 720.23 968.77L848.38 968.98Z" fill="#8e8e8e" opacity="1" stroke-width="4" stroke="#00000000"></path><path d="M622.08 968.87C624.58 963.25 625.31 956.89 623.95 950.74L623.33 950.12 508.3 900.1 507.47 900.51C506.22 906.24 505.18 912.19 504.45 918.13V918.24L622.08 968.87Z" fill="#8e8e8e" opacity="1" stroke-width="4" stroke="#00000000"></path><path d="M623.54 950.54C623.75 950.64 623.95 950.43 623.85 950.22 623.12 947.2 622.08 944.18 620.62 941.37 620 940.12 619.16 938.55 618.33 936.89 614.26 929.07 608.01 917.3 604.37 908.03 600.72 898.54 601.66 886.56 607.28 871.25 607.28 871.14 607.28 871.04 607.18 870.93L588.63 862.7C581.76 859.68 573.73 860.62 567.59 865L542.27 883.12C542.06 883.23 541.85 883.12 541.85 882.92L545.39 862.08C547.06 852.28 541.85 842.59 532.68 838.63L526.54 835.93 526.43 836.13C518.51 856.97 512.16 878.44 507.36 900.21 507.36 900.32 507.36 900.42 507.47 900.52L623.54 950.54Z" fill="#ffffff" opacity="1" stroke-width="4" stroke="#00000000"></path><path d="M799.52 902.92L780.14 906.98" stroke="#00000000" stroke-width="4" stroke-linecap="round" stroke-linejoin="round" opacity="1" fill="none"></path><path d="M805.04 916.36L788.47 928.34" stroke="#00000000" stroke-width="4" stroke-linecap="round" stroke-linejoin="round" opacity="1" fill="none"></path><path d="M742.63 917.51L747.63 951.58" stroke="#00000000" stroke-width="4" stroke-linecap="round" stroke-linejoin="round" opacity="1" fill="none"></path><path d="M541.96 882.81L534.77 912.51" stroke="#00000000" stroke-width="4" stroke-linecap="round" stroke-linejoin="round" opacity="1" fill="none"></path><path d="M602.18 895.11L586.34 896.56" stroke="#00000000" stroke-width="4" stroke-linecap="round" stroke-linejoin="round" opacity="1" fill="none"></path><path d="M604.37 908.13L588.22 914.28" stroke="#00000000" stroke-width="4" stroke-linecap="round" stroke-linejoin="round" opacity="1" fill="none"></path><path d="M705.12 444.69L715.43 503.87 813.27 503.87" stroke="#000000" stroke-width="4" stroke-linecap="round" stroke-linejoin="round" opacity="1" fill="none"></path><path d="M691.57 477.72L710.43 474.38" stroke="#000000" stroke-width="4" stroke-linecap="round" stroke-linejoin="round" opacity="1" fill="none"></path><path d="M882.24 399.26L892.66 413.12" stroke="#00000000" stroke-width="4" stroke-linecap="round" stroke-linejoin="round" opacity="1" fill="none"></path><path d="M824.94 449.27L803.06 428.75" stroke="#000000" stroke-width="4" stroke-linecap="round" stroke-linejoin="round" opacity="1" fill="none"></path><path d="M999.15 322.36C990.6 322.98 981.75 325.17 973.93 328.71" stroke="#000000" stroke-width="4" stroke-linecap="round" stroke-linejoin="round" opacity="1" fill="none"></path><path d="M1002.06 335.29C991.96 335.91 979.14 340.18 979.14 340.18" stroke="#000000" stroke-width="4" stroke-linecap="round" stroke-linejoin="round" opacity="1" fill="none"></path><path d="M1006.13 348.42C1000.4 347.37 987.37 350.92 985.39 352.69" stroke="#000000" stroke-width="4" stroke-linecap="round" stroke-linejoin="round" opacity="1" fill="none"></path><path d="M790.76 321.85C785.55 319.66 782.74 318.62 782.74 318.62" stroke="#00000000" stroke-width="4" stroke-linecap="round" stroke-linejoin="round" opacity="1" fill="none"></path><path d="M767.63 288.09L774.93 292.26" stroke="#00000000" stroke-width="4" stroke-linecap="round" stroke-linejoin="round" opacity="1" fill="#ffffff00"></path><path d="M684.18 378.01C673.76 373.84 672.82 369.36 672.82 369.36" stroke="#00000000" stroke-width="4" stroke-linecap="round" stroke-linejoin="round" opacity="1" fill="none"></path><path d="M648.44 373.53C650.94 376.55 654.17 379.36 657.19 381.86" stroke="#00000000" stroke-width="4" stroke-linecap="round" stroke-linejoin="round" opacity="1" fill="none"></path><path d="M721.16 281.2L724.92 297.46" stroke="#00000000" stroke-width="4" stroke-linecap="round" stroke-linejoin="round" opacity="1" fill="none"></path><path d="M807.23 282.88C810.35 287.05 816.6 287.05 816.6 287.05" stroke="#00000000" stroke-width="4" stroke-linecap="round" stroke-linejoin="round" opacity="1" fill="#ffffff00"></path><path d="M806.71 269.34C805.27 269.34 804.1 268.17 804.1 266.73 804.1 265.29 805.27 264.13 806.71 264.13 808.14 264.13 809.31 265.29 809.31 266.73 809.31 268.17 808.14 269.34 806.71 269.34Z" fill="#231f2000" opacity="1" stroke-width="4" stroke="#ffffff00"></path><path d="M824.94 449.27L811.5 436.67C810.66 436.04 807.85 435.73 806.81 435.73 805.35 435.73 804.1 437.29 803.16 438.44 802.23 439.48 801.91 440.94 802.23 442.4 805.46 458.44 817.33 481.57 817.44 481.88L817.85 482.72 824.94 449.27Z" fill="#feeecd00" opacity="0" stroke="#00000000" stroke-width="4"></path></g><g><path d="M275.9 846.9C298.36 846.9 316.57 828.69 316.57 806.23 316.57 783.78 298.36 765.57 275.9 765.57 253.45 765.57 235.24 783.78 235.24 806.23 235.24 828.69 253.45 846.9 275.9 846.9Z" fill="#ffbc32" opacity="1" stroke-width="4" stroke="#00000000"></path></g><g><path d="M400.05 842.08C401.89 855.99 399.59 881.29 374.41 890.14 349.46 898.87 336.82 894.97 316.01 913.25 297.84 929.23 299.45 961.53 299.45 961.53L360.85 976.02C360.85 976.02 361.08 953.14 374.53 941.87 398.21 921.98 427.18 933.13 448.91 906.12 465.46 885.42 461.9 857.72 461.9 857.72L400.05 842.08Z" fill="#a0a0a0" opacity="1" stroke-width="4" stroke="#00000000"></path></g><g><path d="M1364.92 606.73L1220.88 581.58 1277.51 716.12 1292.36 678.7 1335.62 713.25 1374.92 664.05 1331.66 629.5 1364.92 606.73Z" fill="#1f1f1f" opacity="1" stroke-width="4" stroke="#00000000"></path></g></svg>